G04*
G04 #@! TF.GenerationSoftware,Altium Limited,CircuitStudio,1.5.2 (30)*
G04*
G04 Layer_Physical_Order=2*
G04 Layer_Color=3394611*
%FSLAX25Y25*%
%MOIN*%
G70*
G01*
G75*
%ADD11C,0.04400*%
%ADD12C,0.03000*%
%ADD13C,0.04000*%
%ADD15C,0.05700*%
%ADD16C,0.06600*%
%ADD17C,0.07000*%
D11*
X576690Y654020D02*
X1166690D01*
X576690Y544020D02*
X1036802D01*
X1156690D02*
X1166690D01*
D12*
X1036690Y554020D02*
Y594020D01*
X1136690Y554020D02*
Y594020D01*
X1126690Y554020D02*
Y594020D01*
X1116690Y554020D02*
Y594020D01*
X1046690Y554020D02*
Y594020D01*
X1066690Y554020D02*
Y594020D01*
X1086690Y554020D02*
Y594020D01*
X1106690Y554020D02*
Y594020D01*
X1096692Y555020D02*
Y594020D01*
X1076690Y554020D02*
Y594020D01*
X1056690Y554020D02*
Y594020D01*
X1146690Y554020D02*
Y594020D01*
X836690Y554020D02*
Y594020D01*
X856690Y554020D02*
Y594020D01*
X876690Y554020D02*
Y594020D01*
X896690Y555020D02*
Y594020D01*
X906690Y554020D02*
Y594020D01*
X886690Y554020D02*
Y594020D01*
X866690Y554020D02*
Y594020D01*
X846690Y554020D02*
Y594020D01*
X826690Y554020D02*
Y594020D01*
X916690Y554020D02*
Y594020D01*
X926690Y554020D02*
Y594020D01*
X936690Y554020D02*
Y594020D01*
X676690Y554020D02*
Y594020D01*
X746690Y554020D02*
Y594020D01*
X726690Y554020D02*
Y594020D01*
X706690Y554020D02*
Y594020D01*
X686690Y554020D02*
Y594020D01*
X696690Y553020D02*
Y594020D01*
X716690Y554020D02*
Y594020D01*
X736690Y554020D02*
Y594020D01*
X666690Y554020D02*
Y594020D01*
X656690Y554020D02*
Y594020D01*
X816690Y554020D02*
Y594020D01*
X806690Y554020D02*
Y594020D01*
X796690Y554020D02*
Y594020D01*
X766690Y554020D02*
Y594020D01*
X756690Y554020D02*
Y594020D01*
X1016690Y554020D02*
Y594020D01*
X1026690Y554020D02*
Y594020D01*
X996690Y554020D02*
Y594020D01*
X986690Y554020D02*
Y594020D01*
X976690Y554020D02*
Y594020D01*
X946690Y554020D02*
Y594020D01*
X966690Y554020D02*
Y594020D01*
X956690Y555020D02*
Y594020D01*
X1006690Y554020D02*
Y594020D01*
X776690Y554020D02*
Y594020D01*
X786690Y554020D02*
Y594020D01*
X606690Y554020D02*
Y594020D01*
X636690Y553020D02*
Y594020D01*
X626690Y554020D02*
Y594020D01*
X646690Y554020D02*
Y594020D01*
X616690Y554020D02*
Y594020D01*
X596690Y554020D02*
Y594020D01*
X616690Y604020D02*
Y644020D01*
X646690Y604020D02*
Y644020D01*
X626690Y604020D02*
Y644020D01*
X636690Y604020D02*
Y645020D01*
X606690Y604020D02*
Y644020D01*
X786690Y604020D02*
Y644020D01*
X776690Y604020D02*
Y644020D01*
X1146690Y604020D02*
Y644020D01*
X1006690Y604020D02*
Y644020D01*
X956690Y604020D02*
Y643020D01*
X966690Y604020D02*
Y644020D01*
X946690Y604020D02*
Y644020D01*
X976690Y604020D02*
Y644020D01*
X986690Y604020D02*
Y644020D01*
X996690Y604020D02*
Y644020D01*
X1036690Y604020D02*
Y644020D01*
X1056690Y604020D02*
Y644020D01*
X1076690Y604020D02*
Y644020D01*
X1096690Y604020D02*
Y643020D01*
X1106690Y604020D02*
Y644020D01*
X1086690Y604020D02*
Y644020D01*
X1066690Y604020D02*
Y644020D01*
X1046690Y604020D02*
Y644020D01*
X1026690Y604020D02*
Y644020D01*
X1116690Y604020D02*
Y644020D01*
X1126690Y604020D02*
Y644020D01*
X1136690Y604020D02*
Y644020D01*
X1016690Y604020D02*
Y644020D01*
X756690Y604020D02*
Y644020D01*
X766690Y604020D02*
Y644020D01*
X796690Y604020D02*
Y644020D01*
X806690Y604020D02*
Y644020D01*
X816690Y604020D02*
Y644020D01*
X656690Y604020D02*
Y644020D01*
X666690Y604020D02*
Y644020D01*
X736690Y604020D02*
Y644020D01*
X716690Y604020D02*
Y644020D01*
X696690Y604020D02*
Y645020D01*
X686690Y604020D02*
Y644020D01*
X706690Y604020D02*
Y644020D01*
X726690Y604020D02*
Y644020D01*
X746690Y604020D02*
Y644020D01*
X676690Y604020D02*
Y644020D01*
X936690Y604020D02*
Y644020D01*
X926690Y604020D02*
Y644020D01*
X916690Y604020D02*
Y644020D01*
X826690Y604020D02*
Y644020D01*
X846690Y604020D02*
Y644020D01*
X866690Y604020D02*
Y644020D01*
X886690Y604020D02*
Y644020D01*
X906690Y604020D02*
Y644020D01*
X896690Y604020D02*
Y643020D01*
X876690Y604020D02*
Y644020D01*
X856690Y604020D02*
Y644020D01*
X836690Y604020D02*
Y644020D01*
X596690Y604020D02*
Y644020D01*
X1156690D02*
X1166690D01*
X576690Y634020D02*
X586690D01*
X576690Y644020D02*
X586690D01*
X576690Y624020D02*
X586690D01*
X576690Y614020D02*
X586690D01*
X576690Y604020D02*
X586690D01*
X576690Y554020D02*
X586690D01*
X576690Y564020D02*
X586690D01*
X576690Y574020D02*
X586690D01*
X1156690Y624020D02*
X1166690D01*
X1156690Y614020D02*
X1166690D01*
X1156690Y634020D02*
X1166690D01*
X1156690Y604020D02*
X1166690D01*
X1156690Y554020D02*
X1166690D01*
X1156690Y584020D02*
X1166690D01*
X1156690Y594020D02*
X1166690D01*
X1156690Y564020D02*
X1166690D01*
X1156690Y574020D02*
X1166690D01*
X576690Y594020D02*
X586690D01*
X576690Y584020D02*
X586690D01*
D13*
X1146690Y529032D02*
Y544020D01*
X1136690Y529032D02*
Y544020D01*
X1126690Y529032D02*
Y544020D01*
X1116690Y529032D02*
Y544020D01*
X1106690Y529032D02*
Y544020D01*
X1096690Y529032D02*
Y544020D01*
X1086690Y529032D02*
Y544020D01*
X1076690Y529032D02*
Y544020D01*
X1066690Y529032D02*
Y544020D01*
X1056690Y529032D02*
Y544020D01*
X1046690Y529032D02*
Y544020D01*
X1036776Y544020D02*
X1036802Y528920D01*
D15*
X656690Y594020D02*
D03*
X666690D02*
D03*
X686690D02*
D03*
X706690D02*
D03*
X716690D02*
D03*
X726690D02*
D03*
X736690D02*
D03*
X746690D02*
D03*
X756690D02*
D03*
X806690D02*
D03*
X796690D02*
D03*
X836690D02*
D03*
X826690D02*
D03*
X866690D02*
D03*
X856690D02*
D03*
X876690D02*
D03*
X886690D02*
D03*
X896690D02*
D03*
X906690D02*
D03*
X916690D02*
D03*
X926690D02*
D03*
X676690D02*
D03*
X696690D02*
D03*
X816690D02*
D03*
X846690D02*
D03*
X936690D02*
D03*
X766690D02*
D03*
X596690Y554020D02*
D03*
X586690Y594020D02*
D03*
X606690Y554020D02*
D03*
X626690D02*
D03*
X636690D02*
D03*
X656690D02*
D03*
X666690D02*
D03*
X686690D02*
D03*
X706690D02*
D03*
X716690D02*
D03*
X726690D02*
D03*
X736690D02*
D03*
X746690D02*
D03*
X756690D02*
D03*
X806690D02*
D03*
X796690D02*
D03*
X836690D02*
D03*
X826690D02*
D03*
X866690D02*
D03*
X856690D02*
D03*
X876690D02*
D03*
X886690D02*
D03*
X896690D02*
D03*
X906690D02*
D03*
X916690D02*
D03*
X926690D02*
D03*
X1156690Y594020D02*
D03*
X616690Y554020D02*
D03*
X646690D02*
D03*
X676690D02*
D03*
X696690D02*
D03*
X776690D02*
D03*
X816690D02*
D03*
X846690D02*
D03*
X936690D02*
D03*
X786690D02*
D03*
X766690D02*
D03*
Y564020D02*
D03*
Y584020D02*
D03*
Y574020D02*
D03*
X786690Y564020D02*
D03*
X656690Y574020D02*
D03*
X666690D02*
D03*
X686690D02*
D03*
X706690D02*
D03*
X716690D02*
D03*
X726690D02*
D03*
X736690D02*
D03*
X746690D02*
D03*
X756690D02*
D03*
X806690D02*
D03*
X796690D02*
D03*
X836690D02*
D03*
X826690D02*
D03*
X856690D02*
D03*
X886690D02*
D03*
X896690D02*
D03*
X906690D02*
D03*
X916690D02*
D03*
X926690D02*
D03*
X1156690D02*
D03*
X676690D02*
D03*
X696690D02*
D03*
X816690D02*
D03*
X846690D02*
D03*
X936690D02*
D03*
Y564020D02*
D03*
X846690D02*
D03*
X816690D02*
D03*
X776690D02*
D03*
X696690D02*
D03*
X676690D02*
D03*
X646690D02*
D03*
X616690D02*
D03*
X1156690Y584020D02*
D03*
X926690Y564020D02*
D03*
X916690D02*
D03*
X906690D02*
D03*
X896690D02*
D03*
X886690D02*
D03*
X876690D02*
D03*
X856690D02*
D03*
X866690D02*
D03*
X826690D02*
D03*
X836690D02*
D03*
X796690D02*
D03*
X806690D02*
D03*
X756690D02*
D03*
X746690D02*
D03*
X736690D02*
D03*
X726690D02*
D03*
X716690D02*
D03*
X706690D02*
D03*
X686690D02*
D03*
X666690D02*
D03*
X656690D02*
D03*
X636690D02*
D03*
X626690D02*
D03*
X606690D02*
D03*
X586690Y584020D02*
D03*
X596690Y564020D02*
D03*
X756690Y584020D02*
D03*
X666690D02*
D03*
X746690D02*
D03*
X736690D02*
D03*
X726690D02*
D03*
X716690D02*
D03*
X706690D02*
D03*
X696690D02*
D03*
X676690D02*
D03*
X686690D02*
D03*
X656690D02*
D03*
X926690D02*
D03*
X896690D02*
D03*
X846690D02*
D03*
X1156690Y564020D02*
D03*
X936690Y584020D02*
D03*
X916690D02*
D03*
X906690D02*
D03*
X886690D02*
D03*
X856690D02*
D03*
X826690D02*
D03*
X836690D02*
D03*
X816690D02*
D03*
X796690D02*
D03*
X806690D02*
D03*
X866690Y574020D02*
D03*
X876690D02*
D03*
Y584020D02*
D03*
X866690D02*
D03*
X1156690Y554020D02*
D03*
Y604020D02*
D03*
Y614020D02*
D03*
Y634020D02*
D03*
Y624020D02*
D03*
X1066690Y584020D02*
D03*
X1076690D02*
D03*
Y574020D02*
D03*
X1066690D02*
D03*
X1016690Y584020D02*
D03*
X1036690D02*
D03*
X1026690D02*
D03*
X1056690D02*
D03*
X1086690D02*
D03*
X1106690D02*
D03*
X1116690D02*
D03*
X1136690D02*
D03*
X1046690D02*
D03*
X1096690D02*
D03*
X1126690D02*
D03*
X1036690Y554020D02*
D03*
X1026690Y564020D02*
D03*
X1066690Y554020D02*
D03*
X1056690D02*
D03*
X1076690D02*
D03*
X1086690D02*
D03*
X1096690D02*
D03*
X1106690D02*
D03*
X1116690D02*
D03*
X1126690D02*
D03*
X1016690Y564020D02*
D03*
X1046690Y554020D02*
D03*
X1136690D02*
D03*
Y574020D02*
D03*
X1046690D02*
D03*
X1016690D02*
D03*
X1126690D02*
D03*
X1116690D02*
D03*
X1106690D02*
D03*
X1096690D02*
D03*
X1086690D02*
D03*
X1056690D02*
D03*
X1026690D02*
D03*
X1036690D02*
D03*
X1136690Y544020D02*
D03*
X1046690D02*
D03*
X1016690Y554020D02*
D03*
X1126690Y544020D02*
D03*
X1116690D02*
D03*
X1106690D02*
D03*
X1096690D02*
D03*
X1086690D02*
D03*
X1076690D02*
D03*
X1056690D02*
D03*
X1066690D02*
D03*
X1026690Y554020D02*
D03*
X1036690Y544020D02*
D03*
X1136690Y594020D02*
D03*
X1046690D02*
D03*
X1016690D02*
D03*
X1126690D02*
D03*
X1116690D02*
D03*
X1106690D02*
D03*
X1096690D02*
D03*
X1086690D02*
D03*
X1076690D02*
D03*
X1056690D02*
D03*
X1066690D02*
D03*
X1026690D02*
D03*
X1036690D02*
D03*
X946690Y584020D02*
D03*
X966690D02*
D03*
X976690D02*
D03*
X996690D02*
D03*
X956690D02*
D03*
X986690D02*
D03*
X946690Y564020D02*
D03*
X956690D02*
D03*
X966690D02*
D03*
X976690D02*
D03*
X986690D02*
D03*
X996690D02*
D03*
Y574020D02*
D03*
X986690D02*
D03*
X976690D02*
D03*
X966690D02*
D03*
X956690D02*
D03*
X946690D02*
D03*
X996690Y554020D02*
D03*
X986690D02*
D03*
X976690D02*
D03*
X966690D02*
D03*
X956690D02*
D03*
X946690D02*
D03*
X996690Y594020D02*
D03*
X986690D02*
D03*
X976690D02*
D03*
X966690D02*
D03*
X956690D02*
D03*
X946690D02*
D03*
X1006690D02*
D03*
Y554020D02*
D03*
Y574020D02*
D03*
Y564020D02*
D03*
Y584020D02*
D03*
X1146690Y594020D02*
D03*
Y544020D02*
D03*
Y574020D02*
D03*
Y554020D02*
D03*
Y584020D02*
D03*
X786690D02*
D03*
X776690D02*
D03*
Y574020D02*
D03*
X786690D02*
D03*
X776690Y594020D02*
D03*
X786690D02*
D03*
X596690Y584020D02*
D03*
X626690D02*
D03*
X616690D02*
D03*
X636690D02*
D03*
X646690D02*
D03*
X606690D02*
D03*
X636690Y574020D02*
D03*
X616690D02*
D03*
X646690D02*
D03*
X626690D02*
D03*
X606690D02*
D03*
X596690D02*
D03*
X636690Y594020D02*
D03*
X616690D02*
D03*
X646690D02*
D03*
X626690D02*
D03*
X606690D02*
D03*
X596690D02*
D03*
X586690Y564020D02*
D03*
Y574020D02*
D03*
Y554020D02*
D03*
Y604020D02*
D03*
Y624020D02*
D03*
Y614020D02*
D03*
Y634020D02*
D03*
Y644020D02*
D03*
X1156690D02*
D03*
X596690Y604020D02*
D03*
X606690D02*
D03*
X626690D02*
D03*
X646690D02*
D03*
X616690D02*
D03*
X636690D02*
D03*
X596690Y624020D02*
D03*
X606690D02*
D03*
X626690D02*
D03*
X646690D02*
D03*
X616690D02*
D03*
X636690D02*
D03*
X606690Y614020D02*
D03*
X646690D02*
D03*
X636690D02*
D03*
X616690D02*
D03*
X626690D02*
D03*
X596690D02*
D03*
X786690Y604020D02*
D03*
X776690D02*
D03*
X786690Y624020D02*
D03*
X776690D02*
D03*
Y614020D02*
D03*
X786690D02*
D03*
X1146690D02*
D03*
Y634020D02*
D03*
Y624020D02*
D03*
Y644020D02*
D03*
Y604020D02*
D03*
X1006690Y614020D02*
D03*
Y634020D02*
D03*
Y624020D02*
D03*
Y644020D02*
D03*
Y604020D02*
D03*
X946690D02*
D03*
X956690D02*
D03*
X966690D02*
D03*
X976690D02*
D03*
X986690D02*
D03*
X996690D02*
D03*
X946690Y644020D02*
D03*
X956690D02*
D03*
X966690D02*
D03*
X976690D02*
D03*
X986690D02*
D03*
X996690D02*
D03*
X946690Y624020D02*
D03*
X956690D02*
D03*
X966690D02*
D03*
X976690D02*
D03*
X986690D02*
D03*
X996690D02*
D03*
Y634020D02*
D03*
X986690D02*
D03*
X976690D02*
D03*
X966690D02*
D03*
X956690D02*
D03*
X946690D02*
D03*
X986690Y614020D02*
D03*
X956690D02*
D03*
X996690D02*
D03*
X976690D02*
D03*
X966690D02*
D03*
X946690D02*
D03*
X1036690Y604020D02*
D03*
X1026690D02*
D03*
X1066690D02*
D03*
X1056690D02*
D03*
X1076690D02*
D03*
X1086690D02*
D03*
X1096690D02*
D03*
X1106690D02*
D03*
X1116690D02*
D03*
X1126690D02*
D03*
X1016690D02*
D03*
X1046690D02*
D03*
X1136690D02*
D03*
X1036690Y644020D02*
D03*
X1026690D02*
D03*
X1066690D02*
D03*
X1056690D02*
D03*
X1076690D02*
D03*
X1086690D02*
D03*
X1096690D02*
D03*
X1106690D02*
D03*
X1116690D02*
D03*
X1126690D02*
D03*
X1016690D02*
D03*
X1046690D02*
D03*
X1136690D02*
D03*
X1036690Y624020D02*
D03*
X1026690D02*
D03*
X1056690D02*
D03*
X1086690D02*
D03*
X1096690D02*
D03*
X1106690D02*
D03*
X1116690D02*
D03*
X1126690D02*
D03*
X1016690D02*
D03*
X1046690D02*
D03*
X1136690D02*
D03*
Y634020D02*
D03*
X1046690D02*
D03*
X1016690D02*
D03*
X1126690D02*
D03*
X1116690D02*
D03*
X1106690D02*
D03*
X1096690D02*
D03*
X1086690D02*
D03*
X1076690D02*
D03*
X1056690D02*
D03*
X1066690D02*
D03*
X1026690D02*
D03*
X1036690D02*
D03*
X1126690Y614020D02*
D03*
X1096690D02*
D03*
X1046690D02*
D03*
X1136690D02*
D03*
X1116690D02*
D03*
X1106690D02*
D03*
X1086690D02*
D03*
X1056690D02*
D03*
X1026690D02*
D03*
X1036690D02*
D03*
X1016690D02*
D03*
X1066690Y624020D02*
D03*
X1076690D02*
D03*
Y614020D02*
D03*
X1066690D02*
D03*
X866690D02*
D03*
X876690D02*
D03*
Y624020D02*
D03*
X866690D02*
D03*
X806690Y614020D02*
D03*
X796690D02*
D03*
X816690D02*
D03*
X836690D02*
D03*
X826690D02*
D03*
X856690D02*
D03*
X886690D02*
D03*
X906690D02*
D03*
X916690D02*
D03*
X936690D02*
D03*
X846690D02*
D03*
X896690D02*
D03*
X926690D02*
D03*
X656690D02*
D03*
X686690D02*
D03*
X676690D02*
D03*
X696690D02*
D03*
X706690D02*
D03*
X716690D02*
D03*
X726690D02*
D03*
X736690D02*
D03*
X746690D02*
D03*
X666690D02*
D03*
X756690D02*
D03*
X596690Y634020D02*
D03*
X606690D02*
D03*
X626690D02*
D03*
X636690D02*
D03*
X656690D02*
D03*
X666690D02*
D03*
X686690D02*
D03*
X706690D02*
D03*
X716690D02*
D03*
X726690D02*
D03*
X736690D02*
D03*
X746690D02*
D03*
X756690D02*
D03*
X806690D02*
D03*
X796690D02*
D03*
X836690D02*
D03*
X826690D02*
D03*
X866690D02*
D03*
X856690D02*
D03*
X876690D02*
D03*
X886690D02*
D03*
X896690D02*
D03*
X906690D02*
D03*
X916690D02*
D03*
X926690D02*
D03*
X616690D02*
D03*
X646690D02*
D03*
X676690D02*
D03*
X696690D02*
D03*
X776690D02*
D03*
X816690D02*
D03*
X846690D02*
D03*
X936690D02*
D03*
Y624020D02*
D03*
X846690D02*
D03*
X816690D02*
D03*
X696690D02*
D03*
X676690D02*
D03*
X926690D02*
D03*
X916690D02*
D03*
X906690D02*
D03*
X896690D02*
D03*
X886690D02*
D03*
X856690D02*
D03*
X826690D02*
D03*
X836690D02*
D03*
X796690D02*
D03*
X806690D02*
D03*
X756690D02*
D03*
X746690D02*
D03*
X736690D02*
D03*
X726690D02*
D03*
X716690D02*
D03*
X706690D02*
D03*
X686690D02*
D03*
X666690D02*
D03*
X656690D02*
D03*
X786690Y634020D02*
D03*
X766690Y624020D02*
D03*
Y614020D02*
D03*
Y634020D02*
D03*
Y644020D02*
D03*
X786690D02*
D03*
X936690D02*
D03*
X846690D02*
D03*
X816690D02*
D03*
X776690D02*
D03*
X696690D02*
D03*
X676690D02*
D03*
X646690D02*
D03*
X616690D02*
D03*
X926690D02*
D03*
X916690D02*
D03*
X906690D02*
D03*
X896690D02*
D03*
X886690D02*
D03*
X876690D02*
D03*
X856690D02*
D03*
X866690D02*
D03*
X826690D02*
D03*
X836690D02*
D03*
X796690D02*
D03*
X806690D02*
D03*
X756690D02*
D03*
X746690D02*
D03*
X736690D02*
D03*
X726690D02*
D03*
X716690D02*
D03*
X706690D02*
D03*
X686690D02*
D03*
X666690D02*
D03*
X656690D02*
D03*
X636690D02*
D03*
X626690D02*
D03*
X606690D02*
D03*
X596690D02*
D03*
X766690Y604020D02*
D03*
X936690D02*
D03*
X846690D02*
D03*
X816690D02*
D03*
X696690D02*
D03*
X676690D02*
D03*
X926690D02*
D03*
X916690D02*
D03*
X906690D02*
D03*
X896690D02*
D03*
X886690D02*
D03*
X876690D02*
D03*
X856690D02*
D03*
X866690D02*
D03*
X826690D02*
D03*
X836690D02*
D03*
X796690D02*
D03*
X806690D02*
D03*
X756690D02*
D03*
X746690D02*
D03*
X736690D02*
D03*
X726690D02*
D03*
X716690D02*
D03*
X706690D02*
D03*
X686690D02*
D03*
X666690D02*
D03*
X656690D02*
D03*
X596690Y654020D02*
D03*
X606690D02*
D03*
X626690D02*
D03*
X636690D02*
D03*
X656690D02*
D03*
X666690D02*
D03*
X686690D02*
D03*
X706690D02*
D03*
X716690D02*
D03*
X726690D02*
D03*
X736690D02*
D03*
X746690D02*
D03*
X756690D02*
D03*
X806690D02*
D03*
X796690D02*
D03*
X836690D02*
D03*
X826690D02*
D03*
X866690D02*
D03*
X856690D02*
D03*
X876690D02*
D03*
X886690D02*
D03*
X896690D02*
D03*
X906690D02*
D03*
X916690D02*
D03*
X926690D02*
D03*
X616690D02*
D03*
X646690D02*
D03*
X676690D02*
D03*
X696690D02*
D03*
X776690D02*
D03*
X816690D02*
D03*
X846690D02*
D03*
X936690D02*
D03*
X786690D02*
D03*
X766690D02*
D03*
X1136690D02*
D03*
X1046690D02*
D03*
X1016690D02*
D03*
X1126690D02*
D03*
X1116690D02*
D03*
X1106690D02*
D03*
X1096690D02*
D03*
X1086690D02*
D03*
X1076690D02*
D03*
X1056690D02*
D03*
X1066690D02*
D03*
X1026690D02*
D03*
X1036690D02*
D03*
X996690D02*
D03*
X986690D02*
D03*
X976690D02*
D03*
X966690D02*
D03*
X956690D02*
D03*
X946690D02*
D03*
X1006690D02*
D03*
X1146690D02*
D03*
X1156690D02*
D03*
X586690D02*
D03*
Y544020D02*
D03*
X1006690D02*
D03*
X946690D02*
D03*
X956690D02*
D03*
X966690D02*
D03*
X976690D02*
D03*
X986690D02*
D03*
X996690D02*
D03*
X1026690D02*
D03*
X1016690D02*
D03*
X766690D02*
D03*
X786690D02*
D03*
X936690D02*
D03*
X846690D02*
D03*
X816690D02*
D03*
X776690D02*
D03*
X696690D02*
D03*
X676690D02*
D03*
X646690D02*
D03*
X616690D02*
D03*
X926690D02*
D03*
X916690D02*
D03*
X906690D02*
D03*
X896690D02*
D03*
X886690D02*
D03*
X876690D02*
D03*
X856690D02*
D03*
X866690D02*
D03*
X826690D02*
D03*
X836690D02*
D03*
X796690D02*
D03*
X806690D02*
D03*
X756690D02*
D03*
X746690D02*
D03*
X736690D02*
D03*
X726690D02*
D03*
X716690D02*
D03*
X706690D02*
D03*
X686690D02*
D03*
X666690D02*
D03*
X656690D02*
D03*
X636690D02*
D03*
X626690D02*
D03*
X606690D02*
D03*
X596690D02*
D03*
X1136690Y564020D02*
D03*
X1046690D02*
D03*
X1126690D02*
D03*
X1116690D02*
D03*
X1106690D02*
D03*
X1096690D02*
D03*
X1086690D02*
D03*
X1076690D02*
D03*
X1056690D02*
D03*
X1066690D02*
D03*
X1036690D02*
D03*
X1146690D02*
D03*
X1156690Y544020D02*
D03*
D16*
X576690Y594020D02*
D03*
X1166690D02*
D03*
Y634020D02*
D03*
Y624020D02*
D03*
Y614020D02*
D03*
Y574020D02*
D03*
Y604020D02*
D03*
Y584020D02*
D03*
X576690D02*
D03*
X1166690Y564020D02*
D03*
Y554020D02*
D03*
X576690Y564020D02*
D03*
Y574020D02*
D03*
Y554020D02*
D03*
Y604020D02*
D03*
Y624020D02*
D03*
Y614020D02*
D03*
Y634020D02*
D03*
Y644020D02*
D03*
X1166690D02*
D03*
Y654020D02*
D03*
X576690D02*
D03*
Y544020D02*
D03*
X1166690D02*
D03*
D17*
X1136722Y528920D02*
D03*
X1146722D02*
D03*
X1116722D02*
D03*
X1126722D02*
D03*
X1096722D02*
D03*
X1106722D02*
D03*
X1076722D02*
D03*
X1086722D02*
D03*
X1056722D02*
D03*
X1066722D02*
D03*
X1036722D02*
D03*
X1046722D02*
D03*
M02*
