G04*
G04 #@! TF.GenerationSoftware,Altium Limited,CircuitStudio,1.5.2 (30)*
G04*
G04 Layer_Physical_Order=2*
G04 Layer_Color=3394611*
%FSLAX25Y25*%
%MOIN*%
G70*
G01*
G75*
%ADD14C,0.03937*%
%ADD15C,0.01000*%
%ADD16C,0.01600*%
%ADD17C,0.01400*%
%ADD18C,0.02000*%
%ADD19C,0.01800*%
%ADD20C,0.02400*%
%ADD21C,0.01500*%
%ADD22C,0.02200*%
%ADD23C,0.03300*%
%ADD24C,0.02500*%
%ADD25C,0.02600*%
%ADD26C,0.00600*%
%ADD27C,0.07000*%
%ADD28O,0.07000X0.06000*%
%ADD29O,0.06000X0.06600*%
%ADD30O,0.06600X0.06000*%
%ADD31C,0.02200*%
%ADD32C,0.04200*%
%ADD33C,0.04400*%
%ADD34C,0.03000*%
%ADD35C,0.02800*%
%ADD36C,0.08000*%
%ADD37C,0.13000*%
%ADD38R,0.03150X0.03937*%
G04:AMPARAMS|DCode=39|XSize=18.9mil|YSize=66.93mil|CornerRadius=7.09mil|HoleSize=0mil|Usage=FLASHONLY|Rotation=270.000|XOffset=0mil|YOffset=0mil|HoleType=Round|Shape=RoundedRectangle|*
%AMROUNDEDRECTD39*
21,1,0.01890,0.05276,0,0,270.0*
21,1,0.00472,0.06693,0,0,270.0*
1,1,0.01417,-0.02638,-0.00236*
1,1,0.01417,-0.02638,0.00236*
1,1,0.01417,0.02638,0.00236*
1,1,0.01417,0.02638,-0.00236*
%
%ADD39ROUNDEDRECTD39*%
G04:AMPARAMS|DCode=40|XSize=18.9mil|YSize=66.93mil|CornerRadius=7.09mil|HoleSize=0mil|Usage=FLASHONLY|Rotation=0.000|XOffset=0mil|YOffset=0mil|HoleType=Round|Shape=RoundedRectangle|*
%AMROUNDEDRECTD40*
21,1,0.01890,0.05276,0,0,0.0*
21,1,0.00472,0.06693,0,0,0.0*
1,1,0.01417,0.00236,-0.02638*
1,1,0.01417,-0.00236,-0.02638*
1,1,0.01417,-0.00236,0.02638*
1,1,0.01417,0.00236,0.02638*
%
%ADD40ROUNDEDRECTD40*%
G04:AMPARAMS|DCode=41|XSize=65.35mil|YSize=14.57mil|CornerRadius=5.46mil|HoleSize=0mil|Usage=FLASHONLY|Rotation=180.000|XOffset=0mil|YOffset=0mil|HoleType=Round|Shape=RoundedRectangle|*
%AMROUNDEDRECTD41*
21,1,0.06535,0.00364,0,0,180.0*
21,1,0.05443,0.01457,0,0,180.0*
1,1,0.01093,-0.02722,0.00182*
1,1,0.01093,0.02722,0.00182*
1,1,0.01093,0.02722,-0.00182*
1,1,0.01093,-0.02722,-0.00182*
%
%ADD41ROUNDEDRECTD41*%
G04:AMPARAMS|DCode=42|XSize=62.99mil|YSize=36mil|CornerRadius=13.5mil|HoleSize=0mil|Usage=FLASHONLY|Rotation=90.000|XOffset=0mil|YOffset=0mil|HoleType=Round|Shape=RoundedRectangle|*
%AMROUNDEDRECTD42*
21,1,0.06299,0.00900,0,0,90.0*
21,1,0.03599,0.03600,0,0,90.0*
1,1,0.02700,0.00450,0.01800*
1,1,0.02700,0.00450,-0.01800*
1,1,0.02700,-0.00450,-0.01800*
1,1,0.02700,-0.00450,0.01800*
%
%ADD42ROUNDEDRECTD42*%
%ADD43R,0.03937X0.03150*%
G04:AMPARAMS|DCode=44|XSize=72mil|YSize=46mil|CornerRadius=13.8mil|HoleSize=0mil|Usage=FLASHONLY|Rotation=0.000|XOffset=0mil|YOffset=0mil|HoleType=Round|Shape=RoundedRectangle|*
%AMROUNDEDRECTD44*
21,1,0.07200,0.01840,0,0,0.0*
21,1,0.04440,0.04600,0,0,0.0*
1,1,0.02760,0.02220,-0.00920*
1,1,0.02760,-0.02220,-0.00920*
1,1,0.02760,-0.02220,0.00920*
1,1,0.02760,0.02220,0.00920*
%
%ADD44ROUNDEDRECTD44*%
%ADD45C,0.12000*%
%ADD46C,0.00800*%
%ADD47C,0.09000*%
%ADD48C,0.15000*%
%ADD49C,0.04600*%
%ADD50C,0.06000*%
%ADD51C,0.04000*%
%ADD52C,0.01300*%
%ADD53C,0.07600*%
%ADD54R,0.28550X0.03110*%
%ADD55R,0.04000X0.08900*%
%ADD56R,0.07300X0.22800*%
%ADD57R,0.04100X2.28600*%
%ADD58R,0.05300X0.03500*%
%ADD59R,0.01900X0.03400*%
%ADD60R,0.02500X0.02100*%
%ADD61R,1.27700X0.09800*%
%ADD62R,0.02800X0.02900*%
%ADD63R,0.02500X0.02900*%
%ADD64R,0.02500X0.03000*%
%ADD65R,0.21300X0.06800*%
%ADD66R,0.18400X0.04800*%
%ADD67R,0.01300X0.01400*%
%ADD68R,0.03900X0.03300*%
%ADD69R,0.49500X0.08800*%
%ADD70R,0.05500X0.05000*%
%ADD71R,0.05800X0.05700*%
%ADD72R,0.97900X0.09700*%
%ADD73R,0.04200X0.05500*%
%ADD74R,0.04800X0.11400*%
G04:AMPARAMS|DCode=75|XSize=199.4mil|YSize=98mil|CornerRadius=0mil|HoleSize=0mil|Usage=FLASHONLY|Rotation=135.000|XOffset=0mil|YOffset=0mil|HoleType=Round|Shape=Rectangle|*
%AMROTATEDRECTD75*
4,1,4,0.10515,-0.03585,0.03585,-0.10515,-0.10515,0.03585,-0.03585,0.10515,0.10515,-0.03585,0.0*
%
%ADD75ROTATEDRECTD75*%

%ADD76R,0.05300X0.15500*%
%ADD77R,0.12700X0.27500*%
%ADD78R,0.11100X0.10900*%
G04:AMPARAMS|DCode=79|XSize=206.47mil|YSize=123.04mil|CornerRadius=0mil|HoleSize=0mil|Usage=FLASHONLY|Rotation=135.000|XOffset=0mil|YOffset=0mil|HoleType=Round|Shape=Rectangle|*
%AMROTATEDRECTD79*
4,1,4,0.11650,-0.02950,0.02950,-0.11650,-0.11650,0.02950,-0.02950,0.11650,0.11650,-0.02950,0.0*
%
%ADD79ROTATEDRECTD79*%

%ADD80R,3.79400X0.15000*%
%ADD81R,0.11100X0.06400*%
%ADD82R,0.04900X0.04900*%
%ADD83R,2.33700X0.20200*%
G04:AMPARAMS|DCode=84|XSize=280mil|YSize=158mil|CornerRadius=0mil|HoleSize=0mil|Usage=FLASHONLY|Rotation=225.000|XOffset=0mil|YOffset=0mil|HoleType=Round|Shape=Rectangle|*
%AMROTATEDRECTD84*
4,1,4,0.04313,0.15486,0.15486,0.04313,-0.04313,-0.15486,-0.15486,-0.04313,0.04313,0.15486,0.0*
%
%ADD84ROTATEDRECTD84*%

%ADD85R,0.52100X0.94600*%
%ADD86R,0.52300X0.78600*%
%ADD87R,0.27500X0.25800*%
%ADD88R,0.09200X0.19600*%
%ADD89R,0.12500X0.12000*%
%ADD90R,1.91800X0.48200*%
%ADD91R,0.77400X0.14300*%
%ADD92R,0.26600X0.27100*%
%ADD93R,1.27400X0.14300*%
%ADD94R,1.95600X0.10500*%
G04:AMPARAMS|DCode=95|XSize=198.7mil|YSize=206.09mil|CornerRadius=0mil|HoleSize=0mil|Usage=FLASHONLY|Rotation=135.000|XOffset=0mil|YOffset=0mil|HoleType=Round|Shape=Rectangle|*
%AMROTATEDRECTD95*
4,1,4,0.14311,0.00261,-0.00261,-0.14311,-0.14311,-0.00261,0.00261,0.14311,0.14311,0.00261,0.0*
%
%ADD95ROTATEDRECTD95*%

G04:AMPARAMS|DCode=96|XSize=71mil|YSize=40mil|CornerRadius=0mil|HoleSize=0mil|Usage=FLASHONLY|Rotation=45.000|XOffset=0mil|YOffset=0mil|HoleType=Round|Shape=Rectangle|*
%AMROTATEDRECTD96*
4,1,4,-0.01096,-0.03924,-0.03924,-0.01096,0.01096,0.03924,0.03924,0.01096,-0.01096,-0.03924,0.0*
%
%ADD96ROTATEDRECTD96*%

G04:AMPARAMS|DCode=97|XSize=210mil|YSize=102mil|CornerRadius=0mil|HoleSize=0mil|Usage=FLASHONLY|Rotation=45.000|XOffset=0mil|YOffset=0mil|HoleType=Round|Shape=Rectangle|*
%AMROTATEDRECTD97*
4,1,4,-0.03818,-0.11031,-0.11031,-0.03818,0.03818,0.11031,0.11031,0.03818,-0.03818,-0.11031,0.0*
%
%ADD97ROTATEDRECTD97*%

G04:AMPARAMS|DCode=98|XSize=87mil|YSize=47mil|CornerRadius=0mil|HoleSize=0mil|Usage=FLASHONLY|Rotation=135.000|XOffset=0mil|YOffset=0mil|HoleType=Round|Shape=Rectangle|*
%AMROTATEDRECTD98*
4,1,4,0.04738,-0.01414,0.01414,-0.04738,-0.04738,0.01414,-0.01414,0.04738,0.04738,-0.01414,0.0*
%
%ADD98ROTATEDRECTD98*%

G04:AMPARAMS|DCode=99|XSize=301.94mil|YSize=190mil|CornerRadius=0mil|HoleSize=0mil|Usage=FLASHONLY|Rotation=45.000|XOffset=0mil|YOffset=0mil|HoleType=Round|Shape=Rectangle|*
%AMROTATEDRECTD99*
4,1,4,-0.03958,-0.17393,-0.17393,-0.03958,0.03958,0.17393,0.17393,0.03958,-0.03958,-0.17393,0.0*
%
%ADD99ROTATEDRECTD99*%

G04:AMPARAMS|DCode=100|XSize=346.48mil|YSize=179.26mil|CornerRadius=0mil|HoleSize=0mil|Usage=FLASHONLY|Rotation=45.000|XOffset=0mil|YOffset=0mil|HoleType=Round|Shape=Rectangle|*
%AMROTATEDRECTD100*
4,1,4,-0.05912,-0.18588,-0.18588,-0.05912,0.05912,0.18588,0.18588,0.05912,-0.05912,-0.18588,0.0*
%
%ADD100ROTATEDRECTD100*%

G04:AMPARAMS|DCode=101|XSize=120.21mil|YSize=52.33mil|CornerRadius=0mil|HoleSize=0mil|Usage=FLASHONLY|Rotation=315.000|XOffset=0mil|YOffset=0mil|HoleType=Round|Shape=Rectangle|*
%AMROTATEDRECTD101*
4,1,4,-0.06100,0.02400,-0.02400,0.06100,0.06100,-0.02400,0.02400,-0.06100,-0.06100,0.02400,0.0*
%
%ADD101ROTATEDRECTD101*%

G04:AMPARAMS|DCode=102|XSize=94.75mil|YSize=52.33mil|CornerRadius=0mil|HoleSize=0mil|Usage=FLASHONLY|Rotation=315.000|XOffset=0mil|YOffset=0mil|HoleType=Round|Shape=Rectangle|*
%AMROTATEDRECTD102*
4,1,4,-0.05200,0.01500,-0.01500,0.05200,0.05200,-0.01500,0.01500,-0.05200,-0.05200,0.01500,0.0*
%
%ADD102ROTATEDRECTD102*%

G04:AMPARAMS|DCode=103|XSize=94.75mil|YSize=52.33mil|CornerRadius=0mil|HoleSize=0mil|Usage=FLASHONLY|Rotation=45.000|XOffset=0mil|YOffset=0mil|HoleType=Round|Shape=Rectangle|*
%AMROTATEDRECTD103*
4,1,4,-0.01500,-0.05200,-0.05200,-0.01500,0.01500,0.05200,0.05200,0.01500,-0.01500,-0.05200,0.0*
%
%ADD103ROTATEDRECTD103*%

%ADD104R,0.21200X0.29600*%
G04:AMPARAMS|DCode=105|XSize=224.86mil|YSize=123.74mil|CornerRadius=0mil|HoleSize=0mil|Usage=FLASHONLY|Rotation=225.000|XOffset=0mil|YOffset=0mil|HoleType=Round|Shape=Rectangle|*
%AMROTATEDRECTD105*
4,1,4,0.03575,0.12325,0.12325,0.03575,-0.03575,-0.12325,-0.12325,-0.03575,0.03575,0.12325,0.0*
%
%ADD105ROTATEDRECTD105*%

%ADD106R,0.07000X0.11900*%
%ADD107R,0.26900X0.76300*%
%ADD108R,1.74800X0.23900*%
%ADD109R,0.85300X0.26500*%
%ADD110R,0.44800X0.19900*%
%ADD111R,0.16200X0.14200*%
%ADD112R,0.11400X0.08100*%
%ADD113R,0.04400X0.03100*%
G04:AMPARAMS|DCode=114|XSize=215.4mil|YSize=54.45mil|CornerRadius=0mil|HoleSize=0mil|Usage=FLASHONLY|Rotation=45.000|XOffset=0mil|YOffset=0mil|HoleType=Round|Shape=Rectangle|*
%AMROTATEDRECTD114*
4,1,4,-0.05690,-0.09540,-0.09540,-0.05690,0.05690,0.09540,0.09540,0.05690,-0.05690,-0.09540,0.0*
%
%ADD114ROTATEDRECTD114*%

G04:AMPARAMS|DCode=115|XSize=118.09mil|YSize=67.88mil|CornerRadius=0mil|HoleSize=0mil|Usage=FLASHONLY|Rotation=45.000|XOffset=0mil|YOffset=0mil|HoleType=Round|Shape=Rectangle|*
%AMROTATEDRECTD115*
4,1,4,-0.01775,-0.06575,-0.06575,-0.01775,0.01775,0.06575,0.06575,0.01775,-0.01775,-0.06575,0.0*
%
%ADD115ROTATEDRECTD115*%

G04:AMPARAMS|DCode=116|XSize=62.93mil|YSize=35.36mil|CornerRadius=0mil|HoleSize=0mil|Usage=FLASHONLY|Rotation=135.000|XOffset=0mil|YOffset=0mil|HoleType=Round|Shape=Rectangle|*
%AMROTATEDRECTD116*
4,1,4,0.03475,-0.00975,0.00975,-0.03475,-0.03475,0.00975,-0.00975,0.03475,0.03475,-0.00975,0.0*
%
%ADD116ROTATEDRECTD116*%

G04:AMPARAMS|DCode=117|XSize=261.63mil|YSize=110mil|CornerRadius=0mil|HoleSize=0mil|Usage=FLASHONLY|Rotation=45.000|XOffset=0mil|YOffset=0mil|HoleType=Round|Shape=Rectangle|*
%AMROTATEDRECTD117*
4,1,4,-0.05361,-0.13139,-0.13139,-0.05361,0.05361,0.13139,0.13139,0.05361,-0.05361,-0.13139,0.0*
%
%ADD117ROTATEDRECTD117*%

%ADD118R,0.20400X0.08000*%
%ADD119R,0.06600X0.04700*%
G04:AMPARAMS|DCode=120|XSize=383.54mil|YSize=78.49mil|CornerRadius=0mil|HoleSize=0mil|Usage=FLASHONLY|Rotation=45.000|XOffset=0mil|YOffset=0mil|HoleType=Round|Shape=Rectangle|*
%AMROTATEDRECTD120*
4,1,4,-0.10785,-0.16335,-0.16335,-0.10785,0.10785,0.16335,0.16335,0.10785,-0.10785,-0.16335,0.0*
%
%ADD120ROTATEDRECTD120*%

%ADD121R,0.13800X0.14700*%
%ADD122R,0.09200X0.06700*%
%ADD123R,0.05000X0.12600*%
%ADD124R,0.03100X0.03600*%
G04:AMPARAMS|DCode=125|XSize=190mil|YSize=217.79mil|CornerRadius=0mil|HoleSize=0mil|Usage=FLASHONLY|Rotation=45.000|XOffset=0mil|YOffset=0mil|HoleType=Round|Shape=Rectangle|*
%AMROTATEDRECTD125*
4,1,4,0.00983,-0.14418,-0.14418,0.00983,-0.00983,0.14418,0.14418,-0.00983,0.00983,-0.14418,0.0*
%
%ADD125ROTATEDRECTD125*%

%ADD126R,0.29300X0.07600*%
G04:AMPARAMS|DCode=127|XSize=247.49mil|YSize=80mil|CornerRadius=0mil|HoleSize=0mil|Usage=FLASHONLY|Rotation=135.000|XOffset=0mil|YOffset=0mil|HoleType=Round|Shape=Rectangle|*
%AMROTATEDRECTD127*
4,1,4,0.11578,-0.05922,0.05922,-0.11578,-0.11578,0.05922,-0.05922,0.11578,0.11578,-0.05922,0.0*
%
%ADD127ROTATEDRECTD127*%

%ADD128R,0.05600X0.06200*%
G04:AMPARAMS|DCode=129|XSize=216.95mil|YSize=72.43mil|CornerRadius=0mil|HoleSize=0mil|Usage=FLASHONLY|Rotation=135.000|XOffset=0mil|YOffset=0mil|HoleType=Round|Shape=Rectangle|*
%AMROTATEDRECTD129*
4,1,4,0.10231,-0.05109,0.05109,-0.10231,-0.10231,0.05109,-0.05109,0.10231,0.10231,-0.05109,0.0*
%
%ADD129ROTATEDRECTD129*%

D14*
X646858Y931600D02*
D03*
X1292958Y1136300D02*
D03*
D15*
X1299658Y930900D02*
Y1116300D01*
X1259158Y890400D02*
X1299658Y930900D01*
X1215258Y890400D02*
X1259158D01*
X1297758Y931900D02*
Y1091900D01*
X1258558Y892700D02*
X1297758Y931900D01*
X1214758Y892700D02*
X1258558D01*
X1295858Y933000D02*
Y1068700D01*
X1257758Y894900D02*
X1295858Y933000D01*
X1213758Y894900D02*
X1257758D01*
X1293958Y934100D02*
Y1045300D01*
X1256958Y897100D02*
X1293958Y934100D01*
X1212958Y897100D02*
X1256958D01*
X1292058Y935100D02*
Y1022200D01*
X1256258Y899300D02*
X1292058Y935100D01*
X1212258Y899300D02*
X1256258D01*
X1290158Y936100D02*
Y998800D01*
X1255558Y901500D02*
X1290158Y936100D01*
X1211258Y901500D02*
X1255558D01*
X1288058Y936900D02*
Y941500D01*
X1282958Y931800D02*
X1288058Y936900D01*
X1279158Y931800D02*
X1282958D01*
X1253358Y903700D02*
X1274658Y925000D01*
X1267758D02*
X1270058D01*
X1210258Y903700D02*
X1253358D01*
X1275658Y928300D02*
X1279158Y931800D01*
X1268158Y928300D02*
X1275658D01*
X1276858Y935900D02*
Y1121642D01*
X1273658Y932700D02*
X1276858Y935900D01*
X1266758Y932700D02*
X1273658D01*
X1281858Y937800D02*
Y937900D01*
X1274558Y930500D02*
X1281858Y937800D01*
X1267458Y930500D02*
X1274558D01*
X1252458Y918400D02*
X1266758Y932700D01*
X1252958Y916000D02*
X1267458Y930500D01*
X1252058Y912200D02*
X1268158Y928300D01*
X1248658Y905900D02*
X1267758Y925000D01*
X1209058Y905900D02*
X1248658D01*
X1249858Y912200D02*
X1252058D01*
X1238758Y916000D02*
X1252958D01*
X1237358Y918400D02*
X1252458D01*
X1269458Y938300D02*
Y1109158D01*
X1251858Y920700D02*
X1269458Y938300D01*
X1236158Y920700D02*
X1251858D01*
X1264158Y935900D02*
Y1121642D01*
X1251458Y923200D02*
X1264158Y935900D01*
X1235658Y923200D02*
X1251458D01*
X1281958Y937800D02*
Y1109158D01*
X1281858Y1134100D02*
X1299658Y1116300D01*
X1279558Y1134100D02*
X1281858D01*
X1285600Y1125400D02*
X1297558Y1113442D01*
Y1106100D02*
Y1113442D01*
X1295158Y1103700D02*
X1297558Y1106100D01*
X1289458Y999500D02*
X1290158Y998800D01*
X1285549Y995830D02*
X1287958Y993421D01*
Y982500D02*
Y993421D01*
X1285400Y979942D02*
X1287958Y982500D01*
X668778Y1006187D02*
X676291Y1013700D01*
X668778Y954780D02*
Y1006187D01*
Y954780D02*
X673658Y949900D01*
X671638Y990347D02*
X676291Y995000D01*
X671638Y956120D02*
Y990347D01*
Y956120D02*
X675358Y952400D01*
X674658Y976600D02*
X686258D01*
X693939Y995060D02*
X720958Y1022079D01*
X675728Y995060D02*
X693939D01*
X1129818Y1164460D02*
X1135458Y1170100D01*
X1110118Y1164460D02*
X1129818D01*
X1100558Y1154900D02*
X1110118Y1164460D01*
X930958Y1133700D02*
X933258Y1136000D01*
X990957Y1055598D02*
X995441D01*
X988058Y1052700D02*
X990957Y1055598D01*
X988058Y1046700D02*
Y1052700D01*
X990706Y1058748D02*
X995441D01*
X984158Y1052200D02*
X990706Y1058748D01*
X984158Y1046600D02*
Y1052200D01*
X985598Y1056940D02*
Y1065441D01*
X979858Y1051200D02*
X985598Y1056940D01*
X979858Y1046600D02*
Y1051200D01*
X982449Y1056991D02*
Y1065441D01*
X975658Y1050200D02*
X982449Y1056991D01*
X975658Y1046600D02*
Y1050200D01*
X979299Y1056941D02*
Y1065441D01*
X971758Y1049400D02*
X979299Y1056941D01*
X971758Y1046600D02*
Y1049400D01*
X904158Y944600D02*
Y954600D01*
X882258Y976500D02*
X904158Y954600D01*
X867258Y976500D02*
X882258D01*
X900658Y945200D02*
Y951400D01*
X881458Y970600D02*
X900658Y951400D01*
X868658Y970600D02*
X881458D01*
X928788Y959070D02*
X933056D01*
X925058Y962800D02*
X928788Y959070D01*
X925058Y962800D02*
Y976300D01*
X928447Y956511D02*
X933056D01*
X921358Y963600D02*
X928447Y956511D01*
X921358Y963600D02*
Y989000D01*
X964858Y969500D02*
X968258Y972900D01*
X964858Y967000D02*
Y969500D01*
X959488Y961629D02*
X964858Y967000D01*
X962858Y970500D02*
X967158Y974800D01*
X962858Y967800D02*
Y970500D01*
X959247Y964188D02*
X962858Y967800D01*
X960858Y971400D02*
X966158Y976700D01*
X960858Y968600D02*
Y971400D01*
X959006Y966748D02*
X960858Y968600D01*
X950758Y961700D02*
X953258D01*
X948858Y963600D02*
X950758Y961700D01*
X948858Y963600D02*
Y970800D01*
X952958Y974900D01*
X949358Y952100D02*
X951008Y953750D01*
X949358Y949400D02*
Y952100D01*
Y949400D02*
X952958Y945800D01*
X1007558Y952300D02*
X1009210Y953952D01*
X1007558Y950100D02*
Y952300D01*
Y950100D02*
X1009258Y948400D01*
X1009311Y966748D02*
X1013500D01*
X999358Y976700D02*
X1009311Y966748D01*
X966158Y976700D02*
X999358D01*
X1231558Y908800D02*
X1238758Y916000D01*
X1170358Y908800D02*
X1231558D01*
X1163058Y901500D02*
X1170358Y908800D01*
X1078858Y901500D02*
X1163058D01*
X1172758Y915400D02*
X1230858D01*
X1161358Y904000D02*
X1172758Y915400D01*
X1075158Y904000D02*
X1161358D01*
X998958Y1104700D02*
X999958Y1105700D01*
X988758Y1067000D02*
X989258D01*
X998158Y1075900D01*
X969958Y1116000D02*
X971558Y1114400D01*
X984458Y1107800D02*
X1071358D01*
X979358Y1102700D02*
X984458Y1107800D01*
X966258Y1102700D02*
X979358D01*
X960558Y1108400D02*
X966258Y1102700D01*
X950958Y1108400D02*
X960558D01*
X963458Y1084600D02*
Y1100000D01*
X969958Y1116000D02*
Y1133000D01*
X1002258Y1103700D02*
X1055258D01*
X995458Y1096900D02*
X1002258Y1103700D01*
X973458Y1096900D02*
X995458D01*
X1003158Y1101800D02*
X1050858D01*
X995858Y1094500D02*
X1003158Y1101800D01*
X979458Y1094500D02*
X995858D01*
X1004158Y1099900D02*
X1045958D01*
X996258Y1092000D02*
X1004158Y1099900D01*
X985058Y1092000D02*
X996258D01*
X1000058Y1117300D02*
X1070558D01*
X992358Y1125000D02*
X1000058Y1117300D01*
X981558Y1125000D02*
X992358D01*
X1000858Y1119500D02*
X1068458D01*
X994458Y1125900D02*
X1000858Y1119500D01*
X994458Y1125900D02*
Y1133300D01*
X1197400Y944042D02*
Y949000D01*
X1192358Y939000D02*
X1197400Y944042D01*
X1148158Y939000D02*
X1192358D01*
X673658Y949900D02*
X876358D01*
X675358Y952400D02*
X877158D01*
X902458Y1070200D02*
Y1073500D01*
X911058Y996300D02*
Y1061600D01*
X902458Y1070200D02*
X911058Y1061600D01*
X913358Y997000D02*
Y1094600D01*
Y997000D02*
X921358Y989000D01*
X911058Y996300D02*
X918858Y988500D01*
X898458Y1069600D02*
X908858Y1059200D01*
Y1049600D02*
Y1059200D01*
X871258Y1012000D02*
X908858Y1049600D01*
X895858Y1061100D02*
X905658Y1051300D01*
X895858Y1061100D02*
Y1079700D01*
X796958Y1008800D02*
Y1028900D01*
X801058Y1033000D01*
X1015400Y1007500D02*
X1021258D01*
X1007258D02*
X1009500D01*
X994199Y1020559D02*
X1007258Y1007500D01*
X999858Y954400D02*
X1006358D01*
X997158Y957100D02*
X999858Y954400D01*
X997158Y957100D02*
Y970500D01*
X1006358Y954400D02*
X1008470Y956511D01*
X1013500D01*
X1001658Y966400D02*
Y969300D01*
Y966400D02*
X1003870Y964188D01*
X962058Y949300D02*
Y951100D01*
X795358Y1067300D02*
Y1081600D01*
X794558Y1066500D02*
X795358Y1067300D01*
X943158Y1118900D02*
X947058D01*
X935158Y1110900D02*
X943158Y1118900D01*
X935158Y1107800D02*
Y1110900D01*
X954558Y1126400D02*
X955258D01*
X947058Y1118900D02*
X954558Y1126400D01*
X942958Y1127700D02*
X947958D01*
X933158Y1117900D02*
X942958Y1127700D01*
X933158Y1109000D02*
Y1117900D01*
X955258Y1149200D02*
X1139658D01*
X961258Y1147300D02*
X1142658D01*
X966458Y1145400D02*
X1146058D01*
X1134500Y1157142D02*
Y1159500D01*
X1130358Y1153000D02*
X1134500Y1157142D01*
X943858Y1153000D02*
X1130358D01*
X1015458Y1138900D02*
X1019658Y1143100D01*
X970158Y1139800D02*
X978058Y1131900D01*
Y1128500D02*
Y1131900D01*
Y1128500D02*
X981558Y1125000D01*
X1010000Y1129942D02*
Y1133000D01*
X1068458Y1119500D02*
X1072158Y1123200D01*
X1067058Y1122000D02*
X1070558Y1125500D01*
X1002658Y1122000D02*
X1067058D01*
X1001958Y1122700D02*
X1002658Y1122000D01*
X1066058Y1124500D02*
X1070658Y1129100D01*
X1004058Y1124500D02*
X1066058D01*
X1001158Y1127400D02*
X1004058Y1124500D01*
X997358Y1129400D02*
X1001300Y1133342D01*
X997358Y1125900D02*
Y1129400D01*
Y1125900D02*
X1000558Y1122700D01*
X1002158Y1049100D02*
X1009400D01*
X999208Y1046150D02*
X1002158Y1049100D01*
X999958Y1127400D02*
X1001158D01*
X1077358Y1101800D02*
X1117958D01*
X1071358Y1107800D02*
X1077358Y1101800D01*
X1071458Y1074400D02*
X1118558D01*
X1045958Y1099900D02*
X1071458Y1074400D01*
X1075358Y1077300D02*
X1108658D01*
X1050858Y1101800D02*
X1075358Y1077300D01*
X1078758Y1080200D02*
X1101558D01*
X1055258Y1103700D02*
X1078758Y1080200D01*
X1118558Y1074400D02*
X1157958Y1113800D01*
X1108658Y1077300D02*
X1147558Y1116200D01*
X1101558Y1080200D02*
X1147858Y1126500D01*
X847158Y1131200D02*
X852858Y1125500D01*
Y1099100D02*
Y1125500D01*
Y1099100D02*
X860558Y1091400D01*
Y1050800D02*
Y1091400D01*
X855758Y1046000D02*
X860558Y1050800D01*
X1117958Y1101800D02*
X1145658Y1129500D01*
X1174258Y873200D02*
X1177758Y876700D01*
X1121958Y873200D02*
X1174258D01*
X1115558Y879600D02*
X1121958Y873200D01*
X1177658Y871100D02*
X1210258Y903700D01*
X1178758Y869000D02*
X1211258Y901500D01*
X1179958Y867000D02*
X1212258Y899300D01*
X1180758Y864900D02*
X1212958Y897100D01*
X1181658Y862800D02*
X1213758Y894900D01*
X1182658Y860600D02*
X1214758Y892700D01*
X1183358Y858500D02*
X1215258Y890400D01*
X1162758Y852900D02*
X1165358Y855500D01*
X1012258Y852900D02*
X1162758D01*
X1177758Y876700D02*
X1179858D01*
X1209058Y905900D01*
X1047758Y879600D02*
X1115558D01*
X1069258Y891900D02*
X1078858Y901500D01*
X1065258Y894100D02*
X1075158Y904000D01*
X1033558Y893800D02*
Y932800D01*
X1017958Y948400D02*
X1033558Y932800D01*
X1009258Y948400D02*
X1017958D01*
X1031358Y892500D02*
Y931800D01*
X1016858Y946300D02*
X1031358Y931800D01*
X993458Y946300D02*
X1016858D01*
X1029258Y891400D02*
Y930800D01*
X1015858Y944200D02*
X1029258Y930800D01*
X991658Y944200D02*
X1015858D01*
X1027158Y890200D02*
Y930000D01*
X1015058Y942100D02*
X1027158Y930000D01*
X990258Y942100D02*
X1015058D01*
X1025058Y889200D02*
Y929200D01*
X1014258Y940000D02*
X1025058Y929200D01*
X989158Y940000D02*
X1014258D01*
X1022958Y887900D02*
Y928300D01*
X1013258Y938000D02*
X1022958Y928300D01*
X988158Y938000D02*
X1013258D01*
X1020958Y886700D02*
Y927200D01*
X1012258Y935900D02*
X1020958Y927200D01*
X987058Y935900D02*
X1012258D01*
X1018958Y885500D02*
Y926200D01*
X1011358Y933800D02*
X1018958Y926200D01*
X986058Y933800D02*
X1011358D01*
X1014000Y919500D02*
Y928158D01*
X1010458Y931700D02*
X1014000Y928158D01*
X985058Y931700D02*
X1010458D01*
X1044558Y952700D02*
Y957300D01*
Y952700D02*
X1048208Y949050D01*
X1042158Y927300D02*
X1117858Y1003000D01*
X1042158Y898500D02*
Y927300D01*
Y898500D02*
X1052758Y887900D01*
X1044258Y926600D02*
X1118258Y1000600D01*
X1044258Y899600D02*
Y926600D01*
Y899600D02*
X1053858Y890000D01*
X1046358Y925600D02*
X1118758Y998000D01*
X1046358Y900600D02*
Y925600D01*
Y900600D02*
X1054858Y892100D01*
X1048358Y924500D02*
X1119358Y995500D01*
X1048358Y901600D02*
Y924500D01*
Y901600D02*
X1055358Y894600D01*
X1050358Y922900D02*
X1110258Y982800D01*
X1052358Y921500D02*
X1095858Y965000D01*
X1054458Y920300D02*
X1086258Y952100D01*
X1054458Y915500D02*
Y920300D01*
Y915500D02*
X1055958Y914000D01*
X1057958D01*
X1079058Y939000D02*
X1148258D01*
X1057358Y917300D02*
X1079058Y939000D01*
X1057358Y917200D02*
Y917300D01*
X1033558Y893800D02*
X1047758Y879600D01*
X1031358Y892500D02*
X1046258Y877600D01*
X1029258Y891400D02*
X1045158Y875500D01*
X1054858Y873500D02*
X1057158Y871200D01*
X1043858Y873500D02*
X1054858D01*
X1027158Y890200D02*
X1043858Y873500D01*
X1053758Y871500D02*
X1057608Y867650D01*
X1042758Y871500D02*
X1053758D01*
X1025058Y889200D02*
X1042758Y871500D01*
X1053558Y866000D02*
Y867800D01*
X1051858Y869500D02*
X1053558Y867800D01*
X1041358Y869500D02*
X1051858D01*
X1022958Y887900D02*
X1041358Y869500D01*
X1049458Y866700D02*
X1053258Y862900D01*
X1041058Y866600D02*
X1049458D01*
X1020958Y886700D02*
X1041058Y866600D01*
X1065258Y887900D02*
X1069258Y891900D01*
X1052758Y887900D02*
X1065258D01*
Y892100D02*
Y892200D01*
X1063158Y890000D02*
X1065258Y892100D01*
X1053858Y890000D02*
X1063158D01*
X1058858Y892100D02*
X1073258Y906500D01*
X1054858Y892100D02*
X1058858D01*
X1057658Y867700D02*
X1058358Y867000D01*
X1072858D01*
X1076758Y870900D01*
X1053558Y866000D02*
X1054758Y864800D01*
X1018958Y885500D02*
X1043158Y861300D01*
X1055358Y894600D02*
X1057358D01*
X1066058Y906500D02*
X1086758Y927200D01*
X1057358Y911300D02*
X1058358D01*
X1057958Y914000D02*
X1079858Y935900D01*
X995058Y1068000D02*
X1008229Y1081171D01*
X995058Y1058748D02*
Y1068000D01*
X970758Y935700D02*
Y941700D01*
X965658Y930600D02*
X970758Y935700D01*
X972758Y932700D02*
Y942700D01*
X969000Y928942D02*
X972758Y932700D01*
X932458Y941300D02*
X935358Y944200D01*
X920958Y941300D02*
X932458D01*
X937670Y964188D02*
X942658Y959200D01*
Y942700D02*
Y959200D01*
Y942700D02*
X945658Y939700D01*
X937329Y961629D02*
X940158Y958800D01*
Y943500D02*
Y958800D01*
X935858Y939200D02*
X940158Y943500D01*
X921958Y939200D02*
X935858D01*
X949758Y939600D02*
Y941900D01*
X945058Y946600D02*
X949758Y941900D01*
X945058Y946600D02*
Y959800D01*
X938111Y966748D02*
X945058Y959800D01*
X952958Y938500D02*
Y945800D01*
X951258Y936800D02*
X952958Y938500D01*
X922658Y936800D02*
X951258D01*
X920958Y944400D02*
X923258D01*
X923558Y950200D02*
X924958D01*
X905858Y932500D02*
X923558Y950200D01*
X917858Y948400D02*
Y950200D01*
X890658Y895400D02*
X905958D01*
X855858Y930200D02*
X890658Y895400D01*
X854458Y930200D02*
X855858D01*
X909258Y981300D02*
X913058Y977500D01*
X910058Y989700D02*
X913158D01*
X906658Y972500D02*
Y977400D01*
X906058Y981300D02*
X909258D01*
X903358Y978600D02*
X906058Y981300D01*
X903358Y972600D02*
Y978600D01*
Y972600D02*
X908658Y967300D01*
X900958Y980600D02*
X910058Y989700D01*
X900958Y972000D02*
Y980600D01*
Y972000D02*
X906558Y966400D01*
X862258Y944000D02*
X877458D01*
X889358Y951600D02*
X891358Y949600D01*
Y939300D02*
Y949600D01*
X924558Y1088300D02*
X928658Y1084200D01*
Y1078300D02*
Y1084200D01*
X924558Y1074200D02*
X928658Y1078300D01*
X926658Y1091100D02*
X930658Y1087100D01*
Y1076800D02*
Y1087100D01*
X929100Y1075242D02*
X930658Y1076800D01*
X926658Y1091100D02*
Y1113400D01*
X924558Y1088300D02*
Y1114300D01*
X857558Y965700D02*
X860558Y962700D01*
X870658Y962500D02*
X875758D01*
X876758Y968000D02*
X889358Y955400D01*
Y951600D02*
Y955400D01*
X868158Y968000D02*
X876758D01*
X676291Y1013700D02*
X693758D01*
X718358Y1038300D02*
Y1120900D01*
X693758Y1013700D02*
X718358Y1038300D01*
X720958Y1022079D02*
Y1120000D01*
X696358Y954600D02*
X878058D01*
X686458Y964500D02*
X696358Y954600D01*
X686458Y964500D02*
Y976500D01*
X724158Y1013800D02*
Y1103400D01*
X686658Y976300D02*
X724158Y1013800D01*
X720758Y956800D02*
X879158D01*
X738081Y976900D02*
X738358D01*
X724502Y963321D02*
X738081Y976900D01*
X850558Y1005100D02*
X857558Y998100D01*
Y965700D02*
Y998100D01*
X862158Y974000D02*
X868158Y968000D01*
X862158Y974000D02*
Y991700D01*
X864258Y975000D02*
X868658Y970600D01*
X864258Y975000D02*
Y979100D01*
X859858Y973300D02*
X870658Y962500D01*
X859858Y973300D02*
Y999700D01*
X899658Y944200D02*
X900658Y945200D01*
X741058Y962900D02*
X760858D01*
X894858Y935300D02*
X904158Y944600D01*
X906558Y944100D02*
Y966400D01*
X908658Y943200D02*
Y967300D01*
X899258Y936800D02*
X906558Y944100D01*
X901458Y936000D02*
X908658Y943200D01*
X899258Y934100D02*
Y936800D01*
X901458Y924400D02*
Y936000D01*
X978758Y962600D02*
Y968300D01*
X1048208Y948650D02*
Y949050D01*
X760858Y962900D02*
X769658Y971700D01*
X864258Y979100D02*
X899958Y1014800D01*
X907058D01*
X903658Y934200D02*
X917858Y948400D01*
X927765Y951393D02*
X933056D01*
X906658Y972500D02*
X927765Y951393D01*
X928106Y953952D02*
X933056D01*
X918858Y963200D02*
X928106Y953952D01*
X918858Y963200D02*
Y988500D01*
X905858Y906000D02*
Y932500D01*
X907858Y931300D02*
X920958Y944400D01*
X907858Y904900D02*
Y931300D01*
X910058Y930400D02*
X920958Y941300D01*
X910058Y903500D02*
Y930400D01*
X951008Y953750D02*
X956398D01*
X959206Y953952D02*
X962058Y951100D01*
X955300Y953952D02*
X959206D01*
X986006Y966748D02*
X991256D01*
X976858Y957600D02*
X986006Y966748D01*
X976858Y943000D02*
Y957600D01*
X986788Y961629D02*
X991256D01*
X980658Y955500D02*
X986788Y961629D01*
X980658Y945500D02*
Y955500D01*
X986447Y964188D02*
X991256D01*
X978758Y956500D02*
X986447Y964188D01*
X978758Y944200D02*
Y956500D01*
X987229Y959070D02*
X991256D01*
X982558Y954400D02*
X987229Y959070D01*
X982558Y946600D02*
Y954400D01*
X987570Y956511D02*
X991256D01*
X984458Y953400D02*
X987570Y956511D01*
X984458Y947900D02*
Y953400D01*
X987910Y953952D02*
X991256D01*
X986358Y952400D02*
X987910Y953952D01*
X986358Y949500D02*
Y952400D01*
X955300Y961629D02*
X959488D01*
X955300Y964188D02*
X959247D01*
X955300Y966748D02*
X959006D01*
X1003870Y964188D02*
X1013500D01*
X929000Y924000D02*
X1009000D01*
X944000Y904000D02*
Y919500D01*
X954000Y904000D02*
Y919500D01*
X969000Y876042D02*
Y915000D01*
X964000Y904000D02*
Y919500D01*
X974000Y904000D02*
Y919500D01*
X984000Y904000D02*
Y919500D01*
X994000Y904000D02*
Y919500D01*
X1004000Y904000D02*
Y919500D01*
X1014000Y904000D02*
Y919500D01*
X946160Y1055598D02*
X950559D01*
X944858Y1056900D02*
X946160Y1055598D01*
X960402Y1065441D02*
Y1081900D01*
X969850Y1065441D02*
Y1069892D01*
X951500Y1071193D02*
X957252Y1065441D01*
X966701D02*
Y1070942D01*
X975400Y1079642D01*
X943300Y1087500D02*
Y1091058D01*
X957858Y1091200D02*
X959100Y1089958D01*
Y1087500D02*
Y1089958D01*
X988457Y1036701D02*
X995441D01*
X1003658Y1032800D02*
X1009500D01*
X985598Y1016660D02*
Y1020559D01*
Y1016660D02*
X987858Y1014400D01*
X982449Y1016409D02*
Y1020559D01*
X967700Y1091142D02*
X973458Y1096900D01*
X975400Y1090442D02*
X979458Y1094500D01*
X983900Y1087500D02*
Y1090842D01*
X985058Y1092000D01*
X953258Y959000D02*
Y961700D01*
X979299Y1014759D02*
Y1020559D01*
X982449Y1065441D02*
Y1068891D01*
X988748Y1020559D02*
X991699D01*
X934000Y905000D02*
Y906000D01*
X1009210Y953952D02*
X1012800D01*
X979299Y1014759D02*
X985300Y1008758D01*
X982449Y1016409D02*
X987158Y1011700D01*
X987858Y1014400D02*
X994600D01*
X1002000Y1007000D01*
X963551Y1016551D02*
Y1020559D01*
X960402Y1016643D02*
Y1020559D01*
X958900Y1011900D02*
X963551Y1016551D01*
X957958Y1014200D02*
X960402Y1016643D01*
X976150Y1013909D02*
Y1020559D01*
Y1013909D02*
X978000Y1012058D01*
Y1007000D02*
Y1012058D01*
X986358Y949500D02*
X987858Y948000D01*
X984458Y947900D02*
X986558Y945800D01*
X982558Y946600D02*
X985458Y943700D01*
X980658Y945500D02*
X984458Y941700D01*
X978758Y944200D02*
X983358Y939600D01*
X976858Y943000D02*
X982258Y937600D01*
X986058Y933800D01*
X983358Y939600D02*
X987058Y935900D01*
X984458Y941700D02*
X988158Y938000D01*
X985458Y943700D02*
X989158Y940000D01*
X986558Y945800D02*
X990258Y942100D01*
X987858Y948000D02*
X991658Y944200D01*
X991256Y948502D02*
Y951393D01*
Y948502D02*
X993458Y946300D01*
X935258Y919500D02*
X1014000D01*
X934000Y918242D02*
X935258Y919500D01*
X934000Y904000D02*
Y918242D01*
X934600Y1041858D02*
X935000D01*
X931958Y1044500D02*
X934600Y1041858D01*
X924558Y1060000D02*
X929058Y1055500D01*
X950358Y1027051D02*
X950559Y1027252D01*
X947309Y1033551D02*
X950559D01*
X947259Y1036701D02*
X950559D01*
X925558Y1044500D02*
X931958D01*
X934758Y1055300D02*
Y1057500D01*
X932058Y1060200D02*
X934758Y1057500D01*
X932058Y1067500D02*
X935000Y1070442D01*
Y1063800D02*
X935658D01*
X943300Y1081600D02*
X944058Y1080842D01*
X982449Y1068891D02*
X984358Y1070800D01*
X980958Y1077800D02*
X984008Y1080850D01*
X969850Y1069892D02*
X977758Y1077800D01*
X980958D01*
X1013958Y1028300D02*
X1015400Y1029742D01*
Y1032500D01*
Y1021142D02*
Y1024100D01*
X1014058Y1019800D02*
X1015400Y1021142D01*
X1193758Y1109158D02*
X1197400Y1112800D01*
Y949000D02*
X1201158Y952758D01*
Y1121642D01*
X1197400Y1125400D02*
X1201158Y1121642D01*
X1210000Y1125400D02*
X1213758Y1121642D01*
X1206358Y1109158D02*
X1210000Y1112800D01*
X1222700Y1125400D02*
X1226458Y1121642D01*
Y934800D02*
Y1121642D01*
X1219058Y1109158D02*
X1222700Y1112800D01*
X1235200Y1125400D02*
X1238958Y1121642D01*
Y934900D02*
Y1121642D01*
X1231558Y1109158D02*
X1235200Y1112800D01*
X1247900Y1125400D02*
X1251658Y1121642D01*
Y933500D02*
Y1121642D01*
X1244258Y1109158D02*
X1247900Y1112800D01*
X1260400Y1125400D02*
X1264158Y1121642D01*
X1256758Y1109158D02*
X1260400Y1112800D01*
X1273100Y1125400D02*
X1276858Y1121642D01*
X1269458Y1109158D02*
X1273100Y1112800D01*
X1015400Y1049000D02*
X1130858D01*
X1193758Y947400D02*
Y1109158D01*
X1189658Y943300D02*
X1193758Y947400D01*
X1151758Y944600D02*
X1188358D01*
X1189658Y943300D01*
X1279758Y1125400D02*
X1285600D01*
X1285749Y1101391D02*
X1288058Y1103700D01*
X1295158D01*
X1285749Y1096609D02*
Y1101391D01*
Y1096609D02*
X1288958Y1093400D01*
X1285600Y1075000D02*
Y1079442D01*
X1288958Y1082800D01*
Y1093400D01*
X1288809Y1057600D02*
Y1068200D01*
X1285451Y1054242D02*
X1288809Y1057600D01*
X1285451Y1049800D02*
Y1054242D01*
X1285600Y1071409D02*
X1288809Y1068200D01*
X1285600Y1071409D02*
Y1076191D01*
X1288809Y1032400D02*
Y1043000D01*
X1285451Y1029042D02*
X1288809Y1032400D01*
X1285451Y1024600D02*
Y1029042D01*
X1285600Y1046209D02*
X1288809Y1043000D01*
X1285600Y1046209D02*
Y1050991D01*
X1288660Y1007200D02*
Y1017800D01*
X1285302Y1003842D02*
X1288660Y1007200D01*
X1285302Y999400D02*
Y1003842D01*
X1285451Y1021009D02*
X1288660Y1017800D01*
X1285451Y1021009D02*
Y1025791D01*
X1285549Y995830D02*
Y1000612D01*
X1285451Y949000D02*
Y953442D01*
X1285600Y970609D02*
Y975391D01*
X1289458Y1100200D02*
X1297758Y1091900D01*
X1289458Y1075100D02*
X1295858Y1068700D01*
X1289458Y1049800D02*
X1293958Y1045300D01*
X1289658Y1024600D02*
X1292058Y1022200D01*
X1285451Y953442D02*
X1288058Y956049D01*
Y968151D01*
X1285600Y970609D02*
X1288058Y968151D01*
X1285400Y974221D02*
Y979942D01*
X1063058Y869200D02*
X1072158D01*
X1075858Y872900D01*
X1054758Y864800D02*
X1073758D01*
X1077658Y868700D01*
X1043458Y861000D02*
X1043558Y860900D01*
X1076658D01*
X1080158Y864400D01*
X1053258Y862900D02*
X1075358D01*
X1079058Y866600D01*
X1081258Y858900D02*
X1083758Y861400D01*
X1209058Y850800D02*
X1214758Y856500D01*
X1061058Y871200D02*
X1063058Y869200D01*
X1057158Y871200D02*
X1061058D01*
X1219058Y935300D02*
Y1109158D01*
X1206358Y935900D02*
Y1109158D01*
X1256758Y933600D02*
Y1109158D01*
X1244258Y936200D02*
Y1109158D01*
X1285451Y944107D02*
Y949000D01*
Y944107D02*
X1288058Y941500D01*
X1281958Y1109158D02*
X1285600Y1112800D01*
X1245658Y927500D02*
X1251658Y933500D01*
X1086258Y952100D02*
X1147258D01*
X1079858Y935900D02*
X1209458D01*
X1236458Y932400D02*
X1238958Y934900D01*
X1237858Y929800D02*
X1244258Y936200D01*
X1213758Y935200D02*
Y1121642D01*
X1248458Y925300D02*
X1256758Y933600D01*
X1080258Y933200D02*
X1211758D01*
X1213758Y935200D01*
X1214958Y931200D02*
X1219058Y935300D01*
X1064358Y909500D02*
X1084058Y929200D01*
X1220858D01*
X1226458Y934800D01*
X1164958Y912200D02*
X1170158Y917400D01*
X1222558Y927200D02*
X1231558Y936200D01*
Y1109158D01*
X1224058Y925200D02*
X1231258Y932400D01*
X1236458D01*
X1126558Y923300D02*
X1225458D01*
X1231958Y929800D01*
X1237858D01*
X1226858Y921300D02*
X1233058Y927500D01*
X1245658D01*
X1228358Y919400D02*
X1234258Y925300D01*
X1248458D01*
X1170158Y917400D02*
X1229858D01*
X1235658Y923200D01*
X1230858Y915400D02*
X1236158Y920700D01*
X1231158Y912200D02*
X1237358Y918400D01*
X1195758Y912200D02*
X1231158D01*
X1009000Y884358D02*
Y914600D01*
X1043158Y861300D02*
X1043458Y861000D01*
X1009000Y884358D02*
X1015458Y877900D01*
Y874400D02*
Y877900D01*
X1014000Y884858D02*
Y896000D01*
Y884858D02*
X1020258Y878600D01*
Y872600D02*
Y878600D01*
X1017758Y870100D02*
X1020258Y872600D01*
X974000Y881058D02*
Y896000D01*
Y881058D02*
X1008458Y846600D01*
X979000Y879558D02*
Y915000D01*
Y879558D02*
X1009858Y848700D01*
X984000Y877658D02*
Y896000D01*
Y877658D02*
X1010858Y850800D01*
X1209058D01*
X989000Y876158D02*
Y915000D01*
Y876158D02*
X1012258Y852900D01*
X994000Y874658D02*
Y896000D01*
Y874658D02*
X1013758Y854900D01*
X1146558D01*
X999000Y872958D02*
Y915000D01*
Y872958D02*
X1015058Y856900D01*
X1092958D01*
X1004000Y870958D02*
Y896000D01*
Y870958D02*
X1016058Y858900D01*
X1081258D01*
X1011358Y871700D02*
X1012958Y870100D01*
X1017758D01*
X964000Y884542D02*
Y896000D01*
X952658Y873200D02*
X964000Y884542D01*
X819758Y858500D02*
X823158Y861900D01*
X702958Y858500D02*
X749358D01*
X755658Y864800D01*
X683958Y860700D02*
X684958Y861700D01*
X749358D01*
X754758Y867100D01*
X959000Y891942D02*
Y915000D01*
X939958Y1029400D02*
X947259Y1036701D01*
X942158Y1019358D02*
Y1028400D01*
X947309Y1033551D01*
X956600Y969307D02*
Y978000D01*
X950559Y1027252D02*
X957910D01*
X959558Y1028900D01*
X950559Y1030402D02*
X955260D01*
X957358Y1032500D01*
X959458D01*
X935000Y1012200D02*
X942158Y1019358D01*
X935429Y1019671D02*
X939958Y1024200D01*
Y1029400D01*
X929258Y1000500D02*
Y1002800D01*
X987758Y1037400D02*
X988457Y1036701D01*
X999508Y1063250D02*
X1008458Y1072200D01*
X923258Y1026800D02*
Y1034200D01*
X796958Y1008800D02*
X850758D01*
X738258Y1008900D02*
X789758D01*
X793558Y1005100D01*
X850558D01*
X738358Y991600D02*
X788358D01*
X801058Y978900D01*
X797258Y987100D02*
Y991600D01*
Y987100D02*
X804020Y980339D01*
X850758Y1008800D02*
X859858Y999700D01*
X855758Y1008800D02*
X862158Y1002400D01*
Y991700D02*
Y1002400D01*
X791958Y971700D02*
X797158Y976900D01*
X769658Y971700D02*
X791958D01*
X754758Y867100D02*
X758958Y871300D01*
X755658Y864800D02*
X759958Y869100D01*
X770158Y858500D02*
X776058Y864400D01*
X758958Y871300D02*
X762058Y874400D01*
X759958Y869100D02*
X763258Y872400D01*
X802058Y858700D02*
X806158Y854600D01*
X859958D01*
X866958Y861600D01*
X877958D01*
X884358Y855200D01*
X905158D01*
X939258Y867500D02*
X977158D01*
X870758Y858600D02*
X876358Y853000D01*
X905858D01*
X939058Y862600D02*
X977258D01*
X1138358Y1040500D02*
X1147858D01*
X1126758Y1028900D02*
X1138358Y1040500D01*
X1143558Y998000D02*
X1154258Y1008700D01*
X1130958Y1000600D02*
X1149558Y1019200D01*
X1127458Y1003000D02*
X1147758Y1023300D01*
Y1027700D01*
X1015400Y1015500D02*
X1019658D01*
X1031958Y1027800D01*
X1082158D01*
X1021258Y1007500D02*
X1029058Y1015300D01*
X1082158D01*
X944400Y1010242D02*
X948358Y1014200D01*
X957958D01*
X953958Y1011900D02*
X958900D01*
X960400Y1010542D02*
X966701Y1016842D01*
Y1020559D01*
X960400Y1007000D02*
Y1010542D01*
Y997958D02*
Y1001100D01*
X944400Y1007000D02*
Y1010242D01*
X935179Y1004121D02*
X939558Y1008500D01*
Y1009300D01*
X941358Y1011100D01*
X952500Y1010442D02*
X953958Y1011900D01*
X952500Y1007000D02*
Y1010442D01*
X992279Y1000279D02*
X995558Y997000D01*
X987158Y1011700D02*
X990358D01*
X993100Y1008958D01*
Y1007000D02*
Y1008958D01*
X944400Y1001100D02*
X945058D01*
X952500D02*
X952958D01*
X945058D02*
X949858Y996300D01*
X954858D01*
X949058Y994000D02*
X954158D01*
X929258Y1000500D02*
X935758Y994000D01*
X949058D01*
X934858Y991500D02*
X953758D01*
X934658Y988900D02*
X953258D01*
X949858Y981600D02*
X952958Y978500D01*
Y974900D02*
Y978500D01*
X943300Y1077258D02*
Y1081600D01*
X947458Y1076700D02*
Y1084600D01*
X951500Y1071193D02*
Y1081600D01*
X975400Y1079642D02*
Y1081600D01*
X963551Y1065441D02*
Y1072193D01*
X967658Y1076300D01*
Y1081600D01*
X967700Y1087500D02*
Y1091142D01*
X975400Y1087500D02*
Y1090442D01*
X950858Y1091200D02*
X957858D01*
X922358Y1047700D02*
X925558Y1044500D01*
X922358Y1047700D02*
Y1077600D01*
X984358Y1070800D02*
X988758D01*
X999558Y1081600D01*
X999700D01*
X995441Y1052449D02*
X999407D01*
X1003358Y1056400D01*
Y1059300D01*
X1009458Y1065400D01*
X995441Y1046150D02*
X999208D01*
X995041Y1049299D02*
X999257D01*
X1006758Y1056800D01*
X1009500D01*
X995441Y1030402D02*
X998657D01*
X995441Y1033551D02*
X998807D01*
X1004058Y1028300D01*
X1013958D01*
X998657Y1030402D02*
X1004258Y1024800D01*
X1009058D01*
X1009758Y1024100D01*
X1206900Y1128500D02*
X1210000Y1125400D01*
X1217600Y1130500D02*
X1222700Y1125400D01*
X1228100Y1132500D02*
X1234300Y1126300D01*
X1238800Y1134500D02*
X1247900Y1125400D01*
X1249300Y1136500D02*
X1260400Y1125400D01*
X1260000Y1138500D02*
X1273100Y1125400D01*
X1264658Y1140500D02*
X1279758Y1125400D01*
X1191500Y1156942D02*
Y1158500D01*
X1201500Y1156542D02*
Y1158500D01*
X1211500Y1157142D02*
Y1158500D01*
X1267158Y1142500D02*
X1282958Y1158300D01*
X1000558Y1122700D02*
X1001958D01*
X1002900Y1139400D02*
X1009650Y1132650D01*
X958558Y1050900D02*
Y1057300D01*
X975558Y998558D02*
X977729Y1000729D01*
X975558Y995800D02*
Y998558D01*
X1005758Y1019800D02*
X1014058D01*
X1003958Y1021600D02*
X1005758Y1019800D01*
X986158Y999000D02*
Y1000700D01*
Y999000D02*
X990158Y995000D01*
X928758Y1094442D02*
X935700Y1087500D01*
X933158Y1097500D02*
Y1109000D01*
X935158Y1099200D02*
Y1107800D01*
X930958Y1095800D02*
X934458Y1092300D01*
X942058D01*
X943300Y1091058D01*
X933158Y1097500D02*
X936258Y1094400D01*
X943958D01*
X950858Y1087500D01*
X935158Y1099200D02*
X937858Y1096500D01*
X945558D01*
X950858Y1091200D01*
X941758Y1099200D02*
X950958Y1108400D01*
X929100Y1071042D02*
Y1075242D01*
X924558Y1060000D02*
Y1074200D01*
X922358Y1077600D02*
X925758Y1081000D01*
X935000Y1063800D02*
X938858Y1059942D01*
X946351Y1052449D01*
X950559D01*
X934808Y1081550D02*
X940558Y1075800D01*
X947458Y1068400D02*
X958558Y1057300D01*
X947458Y1068400D02*
Y1076700D01*
X940558Y1061200D02*
Y1075800D01*
Y1061200D02*
X944858Y1056900D01*
X943300Y1064442D02*
Y1077258D01*
Y1064442D02*
X949000Y1058742D01*
X934058Y1056000D02*
X935558D01*
X940458Y1051100D01*
Y1047400D02*
Y1051100D01*
X1111958Y908700D02*
X1126558Y923300D01*
X1086758Y927200D02*
X1222558D01*
X1071458Y908700D02*
X1111958D01*
X1065258Y892200D02*
Y894100D01*
X954000Y890442D02*
Y896000D01*
X949000Y889299D02*
Y915000D01*
X944000Y888042D02*
Y896000D01*
X939000Y886842D02*
Y915000D01*
X934000Y885442D02*
Y896000D01*
X763258Y872400D02*
X917558D01*
X929000Y883842D01*
Y915000D01*
X762058Y874400D02*
X916358D01*
X768058Y870300D02*
X918858D01*
X934000Y885442D01*
X776058Y864400D02*
X779858Y868200D01*
X920358D01*
X939000Y886842D01*
X823158Y861900D02*
X827358Y866100D01*
X922058D01*
X944000Y888042D01*
X838858Y864100D02*
X923997D01*
X949000Y889299D01*
X888708Y858850D02*
X891858Y862000D01*
X925558D01*
X954000Y890442D01*
X903058Y858600D02*
X904458Y860000D01*
X927058D01*
X959000Y891942D01*
X905158Y855200D02*
X907958Y858000D01*
X929758D01*
X939258Y867500D01*
X905858Y853000D02*
X908758Y855900D01*
X932358D01*
X939058Y862600D01*
X909658Y852400D02*
X911058Y853800D01*
X997158D01*
X1006558Y844400D01*
X933056Y966748D02*
X938111D01*
X933056Y964188D02*
X937670D01*
X933056Y961629D02*
X937329D01*
X1057358Y894600D02*
X1071458Y908700D01*
X1058358Y911300D02*
X1080258Y933200D01*
X1120858Y912100D02*
X1128858Y920100D01*
X1159558D01*
X969000Y924000D02*
Y928942D01*
X925958Y930600D02*
X965658D01*
X974758Y942000D02*
X985058Y931700D01*
X974158Y944700D02*
X974758Y944100D01*
Y942000D02*
Y944100D01*
X1052258Y943700D02*
Y987600D01*
X1050158Y989700D02*
X1052258Y987600D01*
X1048358Y989700D02*
X1050158D01*
X1048358Y971000D02*
X1052058D01*
X1000900Y1001100D02*
X1021058D01*
X995558Y997000D02*
X1020458D01*
X990158Y995000D02*
X1022058D01*
X1021058Y1001100D02*
X1031558Y1011600D01*
X1020458Y997000D02*
X1032758Y1009300D01*
X1022058Y995000D02*
X1034058Y1007000D01*
X1125858D01*
X1144058Y1025200D01*
X1031558Y1011600D02*
X1106158D01*
X1124858Y1030300D01*
X1032758Y1009300D02*
X1107158D01*
X1126758Y1028900D01*
X1034258Y1002800D02*
X1082258D01*
X1033358Y982200D02*
X1048358D01*
X1034458Y985900D02*
X1048358D01*
X1124858Y1030300D02*
X1151758Y1057200D01*
Y1067900D01*
X1144058Y1025200D02*
Y1029800D01*
X1147858Y1040500D02*
X1153858Y1046500D01*
X1130858Y1049000D02*
X1149558Y1067700D01*
X1147258Y1089600D02*
X1166258Y1108600D01*
X1015400Y1056800D02*
X1124158D01*
X1147258Y1079900D01*
Y1089600D01*
X1015400Y1064600D02*
X1117958D01*
X1164358Y1111000D01*
X1149558Y1067700D02*
Y1089000D01*
X1166558Y1106000D01*
X1151758Y1067900D02*
Y1088200D01*
X1167358Y1103800D01*
X1153858Y1046500D02*
Y1087100D01*
X1155158Y1088400D01*
X1158758D01*
X1159958Y1087200D01*
X999958Y1105700D02*
X1063058D01*
X1083758Y1085000D01*
X918158Y1021700D02*
X923258Y1026800D01*
X916258Y1026300D02*
X916358Y1026400D01*
X922958Y1000600D02*
X934658Y988900D01*
X922958Y1000600D02*
Y1015400D01*
X928758Y1021200D01*
X924858Y1001500D02*
X934858Y991500D01*
X924858Y1001500D02*
Y1008800D01*
X929058Y1013000D01*
X916258Y997000D02*
Y1026300D01*
Y997000D02*
X931658Y981600D01*
X949858D01*
X918158Y998000D02*
Y1021700D01*
Y998000D02*
X932658Y983500D01*
X951058D01*
X898458Y1077600D02*
X902408Y1081550D01*
X1095858Y965000D02*
X1147058D01*
X1119358Y995500D02*
X1147658D01*
X1118758Y998000D02*
X1143558D01*
X1118258Y1000600D02*
X1130958D01*
X1117858Y1003000D02*
X1127458D01*
X1048358Y939800D02*
X1052258Y943700D01*
X1048358Y953100D02*
X1052258D01*
X959358Y1042100D02*
X967358D01*
X969858Y1039600D01*
Y1031800D02*
Y1039600D01*
Y1031800D02*
X976150Y1025509D01*
Y1020559D02*
Y1025509D01*
X1020158Y1011500D02*
X1030558Y1021900D01*
X1049058D01*
X995441Y1025317D02*
Y1027252D01*
Y1025317D02*
X1005258Y1015500D01*
X1009500D01*
X1006158Y1011500D02*
X1020158D01*
X991699Y1020559D02*
X994199D01*
X972658Y1033200D02*
X982958D01*
X992358Y1023800D01*
X993858D01*
X1006158Y1011500D01*
X1144058Y1029800D02*
X1145658Y1031400D01*
X1157058D01*
X1110258Y982800D02*
X1148058D01*
X1157058Y969700D02*
Y1084600D01*
Y969700D02*
X1168258Y958500D01*
X1159958Y972100D02*
Y1087200D01*
Y972100D02*
X1171958Y960100D01*
Y957000D02*
Y960100D01*
X1168958Y954000D02*
X1171958Y957000D01*
X1155258Y954000D02*
X1168958D01*
X1148258Y939000D02*
Y947000D01*
X1155258Y954000D01*
X1004958Y1127500D02*
Y1127700D01*
X1070558Y1117300D02*
X1074358Y1121100D01*
X1127958D01*
X1142758Y1135900D01*
X1072158Y1123200D02*
X1127158D01*
X1142058Y1138100D01*
X1070558Y1125500D02*
X1126458D01*
X1141258Y1140300D01*
X1070658Y1129100D02*
X1119158D01*
X733558Y1066900D02*
X738158Y1071500D01*
Y1081600D01*
X729658Y1000300D02*
Y1093200D01*
X732458Y1096000D01*
X729658Y1000300D02*
X738358Y991600D01*
X726958Y1099800D02*
X738458Y1111300D01*
X739958Y1119200D02*
X788558D01*
X724158Y1103400D02*
X739958Y1119200D01*
X830358Y1134100D02*
X847158Y1117300D01*
X720958Y1120000D02*
X735058Y1134100D01*
X830358D01*
X718358Y1120900D02*
X733958Y1136500D01*
X855758Y1008800D02*
Y1046000D01*
X788358Y1130800D02*
X801058Y1118100D01*
Y1033000D02*
Y1118100D01*
X734058Y1127700D02*
X738058Y1123700D01*
X789558D01*
X789758Y1008900D02*
Y1108000D01*
X792458Y1110700D01*
Y1120800D01*
X789558Y1123700D02*
X792458Y1120800D01*
X789158Y999700D02*
X797258Y991600D01*
X741258Y999700D02*
X789158D01*
X734358Y1006600D02*
X741258Y999700D01*
X734358Y1006600D02*
Y1035600D01*
X785658Y1086900D01*
X844758Y1047600D02*
Y1087200D01*
X853158Y1066400D02*
Y1078900D01*
X856058Y1081800D01*
X906758Y1073400D02*
Y1087300D01*
X864158Y1012000D02*
X871258D01*
X898458Y1069600D02*
Y1077600D01*
X895858Y1079700D02*
X902458Y1086300D01*
X894858Y909600D02*
Y924500D01*
X898958Y907700D02*
Y921900D01*
X895958Y904400D02*
X901258D01*
X894758Y902400D02*
X902258D01*
X893658Y900400D02*
X903358D01*
X901258Y904400D02*
X903658Y906800D01*
X902258Y902400D02*
X905858Y906000D01*
X903358Y900400D02*
X907858Y904900D01*
X892258Y898100D02*
X904658D01*
X910058Y903500D01*
X898958Y921900D02*
X901458Y924400D01*
X898058Y932900D02*
X899258Y934100D01*
X894858Y924500D02*
Y935300D01*
X887458Y912900D02*
X895958Y904400D01*
X885458Y911700D02*
X894758Y902400D01*
X883358Y910700D02*
X893658Y900400D01*
X881258Y909100D02*
X892258Y898100D01*
X876358Y949900D02*
X881258Y945000D01*
Y909100D02*
Y945000D01*
X877158Y952400D02*
X883358Y946200D01*
Y910700D02*
Y946200D01*
X878058Y954600D02*
X885458Y947200D01*
Y911700D02*
Y947200D01*
X879158Y956800D02*
X887458Y948500D01*
Y912900D02*
Y948500D01*
X903658Y906800D02*
Y934200D01*
X849158Y930900D02*
X862258Y944000D01*
X1006558Y844400D02*
X1226658D01*
X1239008Y856750D01*
X1008458Y846600D02*
X1224058D01*
X1234308Y856850D01*
X938258Y1139100D02*
X950258Y1151100D01*
X1137258D01*
X953458Y1139500D02*
X961258Y1147300D01*
X962358Y1141300D02*
X966458Y1145400D01*
X962358Y1139800D02*
Y1141300D01*
X926658Y1113400D02*
Y1135800D01*
X943858Y1153000D01*
X924558Y1114300D02*
Y1136900D01*
X942558Y1154900D01*
X1100558D01*
X928758Y1094442D02*
Y1134800D01*
X932858Y1138900D01*
X937900D01*
X930958Y1095800D02*
Y1133700D01*
X945858Y1139100D02*
Y1139800D01*
X955258Y1149200D01*
X947958Y1127700D02*
X949658Y1129400D01*
Y1135700D01*
X953458Y1139500D01*
X935458Y1127400D02*
X937900Y1129842D01*
Y1133000D01*
X946758Y1124000D02*
X947558D01*
X953900Y1130342D01*
Y1133000D01*
X955258Y1126400D02*
X957958Y1129100D01*
Y1135700D01*
X961708Y1139450D01*
X1009800Y1138900D02*
X1015458D01*
X1015358Y1135000D02*
Y1138800D01*
X1005258Y1127500D02*
X1007558D01*
X1010000Y1129942D01*
X985858Y1138900D02*
X990458Y1143500D01*
X998858D01*
X1003558Y1138800D01*
X974158Y944700D02*
Y948000D01*
X971458Y944000D02*
X972758Y942700D01*
X971458Y944000D02*
Y949900D01*
X973558Y952000D01*
X969358Y943100D02*
X970758Y941700D01*
X969358Y943100D02*
Y953200D01*
X978758Y962600D01*
X960400Y997958D02*
X965258Y993100D01*
X1024558D01*
X1034258Y1002800D01*
X952958Y1001100D02*
X962858Y991200D01*
X1029158D01*
X1034458Y985900D01*
X954858Y996300D02*
X961858Y989300D01*
X1026258D01*
X1033358Y982200D01*
X954158Y994000D02*
X960758Y987400D01*
X1022958D01*
X1048358Y962000D01*
X953758Y991500D02*
X959758Y985500D01*
X1020358D01*
X1048358Y957500D01*
X953258Y988900D02*
X958558Y983600D01*
X1018258D01*
X1044558Y957300D01*
X951058Y983500D02*
X955958Y978600D01*
X1002958D01*
X1012358Y969200D01*
X967158Y974800D02*
X996158D01*
X1001658Y969300D01*
X968258Y972900D02*
X994758D01*
X997158Y970500D01*
X974058Y971000D02*
X984258D01*
X976158Y970300D02*
X976858Y971000D01*
X973358Y970300D02*
X976158D01*
X980658Y970900D02*
X981258Y970300D01*
X984458D01*
X962958Y945700D02*
X966858Y949600D01*
X962658Y944300D02*
X966558Y948200D01*
X804020Y966621D02*
Y980339D01*
X801058Y971546D02*
Y978900D01*
X833358Y858600D02*
X838858Y864100D01*
X756258Y858500D02*
X768058Y870300D01*
X966158Y873200D02*
X969000Y876042D01*
X1092958Y856900D02*
X1097358Y861300D01*
X1046258Y877600D02*
X1111458D01*
X1117958Y871100D01*
X1177658D01*
X1080158Y864400D02*
X1100358D01*
X1106258Y858500D01*
X1183358D01*
X1079058Y866600D02*
X1101558D01*
X1107558Y860600D01*
X1182658D01*
X1077658Y868700D02*
X1102858D01*
X1108758Y862800D01*
X1181658D01*
X1076758Y870900D02*
X1104458D01*
X1110458Y864900D01*
X1180758D01*
X1075858Y872900D02*
X1106158D01*
X1112058Y867000D01*
X1179958D01*
X1045158Y875500D02*
X1107158D01*
X1113658Y869000D01*
X1178758D01*
X1146558Y854900D02*
X1147458Y855800D01*
X1151458D01*
X1009858Y848700D02*
X1220458D01*
X1228558Y856800D01*
X1093758Y912200D02*
X1106758Y925200D01*
X1224058D01*
X1073258Y906500D02*
X1154358D01*
X1167258Y919400D01*
X1228358D01*
X1131758Y912200D02*
X1156758D01*
X1165858Y921300D01*
X1226858D01*
X1058858Y908500D02*
X1081558Y931200D01*
X1214958D01*
X1050358Y910500D02*
Y922900D01*
Y910500D02*
X1054358Y906500D01*
X1066058D01*
X1052358Y911700D02*
Y921500D01*
Y911700D02*
X1055558Y908500D01*
X1058858D01*
X916358Y874400D02*
X923858Y881900D01*
Y928500D01*
X925958Y930600D01*
X909658Y877600D02*
Y893700D01*
X917558Y901600D01*
Y931700D01*
X922658Y936800D01*
X905958Y895400D02*
X914858Y904300D01*
Y932100D01*
X921958Y939200D01*
X831258Y930900D02*
X849158D01*
X1167358Y1103800D02*
X1171958D01*
X1196658Y1128500D01*
X1206900D01*
X1166558Y1106000D02*
X1171358D01*
X1195858Y1130500D01*
X1217600D01*
X1166258Y1108600D02*
X1171158D01*
X1195058Y1132500D01*
X1228100D01*
X1164358Y1111000D02*
X1170758D01*
X1194258Y1134500D01*
X1238800D01*
X1157958Y1113800D02*
X1170758D01*
X1193458Y1136500D01*
X1249300D01*
X1147558Y1116200D02*
X1170358D01*
X1192658Y1138500D01*
X1260000D01*
X1147858Y1126500D02*
X1177858D01*
X1191858Y1140500D01*
X1264658D01*
X1145658Y1129500D02*
X1178158D01*
X1191158Y1142500D01*
X1267158D01*
X1142758Y1135900D02*
X1176658D01*
X1142058Y1138100D02*
X1176158D01*
X1141258Y1140300D02*
X1175658D01*
X1191479Y1156121D01*
X1019658Y1143100D02*
X1175658D01*
X1181500Y1148942D01*
Y1158500D01*
X1176658Y1135900D02*
X1188758Y1148000D01*
X1202358D01*
X1211500Y1157142D01*
X1176158Y1138100D02*
X1187958Y1149900D01*
X1194858D01*
X1201500Y1156542D01*
X1221500Y1158500D02*
Y1160958D01*
X1231500Y1158500D02*
Y1160958D01*
X1241500Y1158500D02*
Y1160858D01*
X1251500Y1158500D02*
Y1160758D01*
X1137258Y1151100D02*
X1157758Y1171600D01*
X1240658D01*
X1251500Y1160758D01*
X1139658Y1149200D02*
X1159758Y1169300D01*
X1233058D01*
X1241500Y1160858D01*
X1142658Y1147300D02*
X1162158Y1166800D01*
X1225658D01*
X1231500Y1160958D01*
X1146058Y1145400D02*
X1164958Y1164300D01*
X1218158D01*
X1221500Y1160958D01*
X722502Y963321D02*
X724502D01*
X689958Y966600D02*
X717958D01*
X726958Y975600D01*
Y1099800D01*
X717958Y959600D02*
X720758Y956800D01*
X717958Y959600D02*
Y966600D01*
X792132Y962621D02*
X801058Y971546D01*
X804020Y966621D02*
X808020Y962621D01*
X824158Y964100D02*
X853858Y993800D01*
X824158Y962621D02*
Y964100D01*
X935000Y1040900D02*
X940658D01*
X945908Y1046150D01*
X950559D01*
X946257Y1049299D02*
X950359D01*
X935000Y1048600D02*
X938800Y1044800D01*
X941758D01*
X946257Y1049299D01*
X898508Y1124850D02*
X906358Y1117000D01*
X733958Y1136500D02*
X850598D01*
X862248Y1124850D01*
X898508D01*
X985300Y1007000D02*
Y1008758D01*
X941358Y1011100D02*
X950817Y1020559D01*
X957252D01*
D16*
X1282658Y937100D02*
X1284458D01*
X1281858Y937900D02*
X1282658Y937100D01*
X1015400Y1072200D02*
Y1082958D01*
X1010858Y1087500D02*
X1015400Y1082958D01*
X1008600Y1087500D02*
X1010858D01*
X1019458Y951700D02*
Y974700D01*
X973000Y1065441D02*
Y1069742D01*
X1012158Y1036500D02*
X1015358Y1039700D01*
X973000Y1069742D02*
X978858Y1075600D01*
X985258D01*
X1015358Y1039700D02*
X1015958D01*
X976150Y1065441D02*
Y1069091D01*
X980158Y1073100D01*
X973000Y1003042D02*
Y1020559D01*
X971058Y1001100D02*
X973000Y1003042D01*
X968700Y1001100D02*
X971058D01*
X969850Y1020559D02*
X969967Y1013371D01*
X968619Y1011980D02*
X969967Y1013371D01*
X968619Y1011980D02*
X968700Y1007000D01*
X945145Y975600D02*
X949258D01*
X938852Y969307D02*
X945145Y975600D01*
X985258Y1075600D02*
X987658Y1078000D01*
Y1084100D01*
X991258Y1087700D01*
X980158Y1073100D02*
X987058D01*
X992100Y1078142D01*
Y1081600D01*
X995441Y1039850D02*
X999208D01*
X1002558Y1036500D01*
X1012158D01*
X950559Y1039850D02*
X955808D01*
X957358Y1038300D01*
X966558D01*
Y1031700D02*
Y1038300D01*
Y1031700D02*
X973000Y1025258D01*
Y1020559D02*
Y1025258D01*
D17*
X969258Y968300D02*
X971858D01*
X961958Y961000D02*
X969258Y968300D01*
X961958Y958000D02*
Y961000D01*
X933056Y969307D02*
X938852D01*
X951658Y956500D01*
X1013500Y951393D02*
X1020358D01*
X655858Y1102900D02*
Y1116500D01*
X640258Y1110000D02*
X662658D01*
X951658Y956500D02*
X960458D01*
X961958Y958000D01*
X966858Y940700D02*
X967658Y939900D01*
X970558Y967300D02*
X974058Y970800D01*
X984258D02*
X985658Y969400D01*
X989458D01*
D18*
X1269358Y937400D02*
X1270358Y936400D01*
X958758Y1046600D02*
X967958D01*
X955058Y1042900D02*
X958758Y1046600D01*
X950659Y1042900D02*
X955058D01*
X718758Y1185600D02*
X722458Y1180600D01*
X1020658Y954100D02*
Y974000D01*
X958458Y946600D02*
Y949400D01*
X956658Y951200D02*
X958458Y949400D01*
Y939900D02*
X967658D01*
X978500Y1138900D02*
X984958D01*
X1197549Y1100200D02*
X1200658D01*
X1194440Y1087600D02*
X1197549D01*
X1194291Y1062400D02*
X1197400D01*
Y1075000D02*
X1200509D01*
X1194291Y1037200D02*
X1197400D01*
Y1049800D02*
X1200509D01*
X1194291Y1012000D02*
X1197400D01*
Y1024600D02*
X1200509D01*
X1194291Y961600D02*
X1197400D01*
Y974200D02*
X1200509D01*
X1197349Y999421D02*
X1200458D01*
X1194240Y986821D02*
X1197349D01*
X1206840D02*
X1209949D01*
Y999421D02*
X1213058D01*
X1210000Y974200D02*
X1213109D01*
X1206891Y961600D02*
X1210000D01*
Y1024600D02*
X1213109D01*
X1206891Y1012000D02*
X1210000D01*
Y1049800D02*
X1213109D01*
X1206891Y1037200D02*
X1210000D01*
Y1075000D02*
X1213109D01*
X1206891Y1062400D02*
X1210000D01*
X1207040Y1087600D02*
X1210149D01*
Y1100200D02*
X1213258D01*
X1219540Y986821D02*
X1222649D01*
Y999421D02*
X1225758D01*
X1222700Y974200D02*
X1225809D01*
X1219591Y961600D02*
X1222700D01*
Y1024600D02*
X1225809D01*
X1219591Y1012000D02*
X1222700D01*
Y1049800D02*
X1225809D01*
X1219591Y1037200D02*
X1222700D01*
Y1075000D02*
X1225809D01*
X1219591Y1062400D02*
X1222700D01*
X1219740Y1087600D02*
X1222849D01*
Y1100200D02*
X1225958D01*
X1232040Y986821D02*
X1235149D01*
Y999421D02*
X1238258D01*
X1235200Y974200D02*
X1238309D01*
X1232091Y961600D02*
X1235200D01*
Y1024600D02*
X1238309D01*
X1232091Y1012000D02*
X1235200D01*
Y1049800D02*
X1238309D01*
X1232091Y1037200D02*
X1235200D01*
Y1075000D02*
X1238309D01*
X1232091Y1062400D02*
X1235200D01*
X1232240Y1087600D02*
X1235349D01*
Y1100200D02*
X1238458D01*
X1244740Y986821D02*
X1247849D01*
Y999421D02*
X1250958D01*
X1247900Y974200D02*
X1251009D01*
X1244791Y961600D02*
X1247900D01*
Y1024600D02*
X1251009D01*
X1244791Y1012000D02*
X1247900D01*
Y1049800D02*
X1251009D01*
X1244791Y1037200D02*
X1247900D01*
Y1075000D02*
X1251009D01*
X1244791Y1062400D02*
X1247900D01*
X1244940Y1087600D02*
X1248049D01*
Y1100200D02*
X1251158D01*
X1257240Y986821D02*
X1260349D01*
Y999421D02*
X1263458D01*
X1260400Y974200D02*
X1263509D01*
X1257291Y961600D02*
X1260400D01*
Y1024600D02*
X1263509D01*
X1257291Y1012000D02*
X1260400D01*
Y1049800D02*
X1263509D01*
X1257291Y1037200D02*
X1260400D01*
Y1075000D02*
X1263509D01*
X1257291Y1062400D02*
X1260400D01*
X1257440Y1087600D02*
X1260549D01*
Y1100200D02*
X1263658D01*
X1269940Y986821D02*
X1273049D01*
Y999421D02*
X1276158D01*
X1273100Y974200D02*
X1276209D01*
X1269991Y961600D02*
X1273100D01*
Y1024600D02*
X1276209D01*
X1269991Y1012000D02*
X1273100D01*
Y1049800D02*
X1276209D01*
X1269991Y1037200D02*
X1273100D01*
Y1075000D02*
X1276209D01*
X1269991Y1062400D02*
X1273100D01*
X1270140Y1087600D02*
X1273249D01*
Y1100200D02*
X1276358D01*
X1282440Y986821D02*
X1285049D01*
X1282491Y961600D02*
X1285000D01*
X1282491Y1012000D02*
X1285600D01*
X1282491Y1037200D02*
X1285600D01*
X1282491Y1062400D02*
X1285600D01*
X1282640Y1087600D02*
X1285749D01*
X1071158Y872600D02*
Y875000D01*
X1257249Y936400D02*
X1260358D01*
X1244749D02*
X1247858D01*
X1232049D02*
X1235158D01*
X1219549D02*
X1222658D01*
X1206849D02*
X1209958D01*
X1270358D02*
X1273058D01*
X1273100Y949000D02*
X1276209D01*
X1260400D02*
X1263509D01*
X1247900D02*
X1251009D01*
X1235200D02*
X1238309D01*
X1222700D02*
X1225809D01*
X1210000D02*
X1213109D01*
X935000Y1026642D02*
Y1030100D01*
X933458Y1025100D02*
X935000Y1026642D01*
X926058Y1025100D02*
X933458D01*
X1002158Y1041300D02*
Y1045000D01*
X920558Y1019600D02*
X926058Y1025100D01*
X920558Y999200D02*
Y1019600D01*
Y999200D02*
X933658Y986100D01*
X952158D01*
X937500Y1133000D02*
X945100D01*
X966458Y957800D02*
X970408Y961750D01*
X966458Y940700D02*
Y957800D01*
X952158Y986100D02*
X957158Y981100D01*
X1013558D01*
X1037958Y956700D01*
X929258Y1035100D02*
X938333D01*
X946333Y1043000D01*
X950559D01*
X958458Y938600D02*
Y946600D01*
D19*
X968158Y1044800D02*
Y1056600D01*
X962300Y1123742D02*
Y1133000D01*
X958060Y1119502D02*
X962300Y1123742D01*
X962358Y1127400D02*
X965258D01*
X971558Y1055000D02*
X976150Y1059591D01*
X971558Y1053700D02*
Y1055000D01*
X976150Y1059591D02*
Y1065441D01*
X929058Y1048900D02*
Y1055200D01*
X968158Y1056600D02*
X973000Y1061442D01*
Y1065441D01*
X968158Y1044800D02*
X970458Y1042500D01*
X995641Y1043000D02*
X1002258D01*
X1008700Y1041300D02*
X1009500Y1040500D01*
X970458Y1042500D02*
X988158D01*
X990808Y1039850D01*
X995858D01*
X1002158Y1041300D02*
X1008700D01*
X962658Y1050800D02*
X967858D01*
X929100Y1063800D02*
Y1071042D01*
X914358Y893900D02*
X919958Y899500D01*
X914458Y891900D02*
X920058Y897500D01*
X914358Y889800D02*
X919958Y895400D01*
X992758Y840800D02*
Y842800D01*
D20*
X1009608Y980850D02*
X1020258Y970200D01*
X992100Y1087500D02*
X1008600D01*
X1005558Y1087900D02*
Y1096900D01*
D21*
X1006758Y959100D02*
X1012258D01*
X1005258Y957600D02*
X1006758Y959100D01*
X1001458Y957600D02*
X1005258D01*
X1013500Y959070D02*
X1020458D01*
X1013500Y961629D02*
X1020288D01*
D22*
X968958Y1109800D02*
X974858D01*
X959398Y1119360D02*
X968958Y1109800D01*
X974858D02*
X984693Y1119635D01*
X986257D01*
X978258Y1106000D02*
X982858Y1110600D01*
X967258Y1106000D02*
X978258D01*
X961958Y1111300D02*
X967258Y1106000D01*
X944858Y1111300D02*
X961958D01*
X982858Y1110600D02*
X1084758D01*
X961440Y1102018D02*
X963458Y1100000D01*
X963840Y1099618D02*
X981977D01*
X957405Y1102018D02*
X961440D01*
X984377Y1102018D02*
X988901D01*
X981977Y1099618D02*
X984377Y1102018D01*
X987000Y1133000D02*
X994600D01*
X1012608Y980050D02*
X1018558Y974100D01*
X938658Y1105100D02*
X944858Y1111300D01*
X919058Y883100D02*
Y895000D01*
D23*
X1306958Y925900D02*
Y1145900D01*
D24*
X924358Y933600D02*
X953458D01*
X929100Y1030100D02*
Y1040300D01*
X1253558Y1145300D02*
X1261500Y1153242D01*
X914058Y840400D02*
Y850500D01*
X1074358Y1114300D02*
X1077358Y1117300D01*
X1128958D01*
X1144158Y1132500D01*
X913958Y877600D02*
X920758Y884400D01*
Y930000D01*
X924358Y933600D01*
X1144158Y1132500D02*
X1177258D01*
X1190058Y1145300D01*
X1253558D01*
X1261500Y1153242D02*
Y1156400D01*
X987358Y1119000D02*
X992858D01*
X997558Y1114300D01*
X1074358D01*
X953458Y933600D02*
X961458Y941600D01*
D25*
X1173258Y878100D02*
X1176758Y881600D01*
X1157558Y1181700D02*
X1161958Y1186600D01*
D26*
X978058Y1193599D02*
Y1190400D01*
X976459D01*
X975926Y1190933D01*
Y1191466D01*
X976459Y1192000D01*
X978058D01*
X976459D01*
X975926Y1192533D01*
Y1193066D01*
X976459Y1193599D01*
X978058D01*
X973260D02*
X974326D01*
X974859Y1193066D01*
Y1190933D01*
X974326Y1190400D01*
X973260D01*
X972727Y1190933D01*
Y1193066D01*
X973260Y1193599D01*
X971660D02*
X969528D01*
X970594D01*
Y1190400D01*
X968461Y1193599D02*
X966329D01*
X967395D01*
Y1190400D01*
X963663Y1193599D02*
X964729D01*
X965262Y1193066D01*
Y1190933D01*
X964729Y1190400D01*
X963663D01*
X963130Y1190933D01*
Y1193066D01*
X963663Y1193599D01*
X962063Y1190400D02*
Y1193599D01*
X960997Y1192533D01*
X959931Y1193599D01*
Y1190400D01*
X955665Y1193599D02*
Y1190400D01*
X953533D01*
X952466D02*
Y1192533D01*
X951400Y1193599D01*
X950334Y1192533D01*
Y1190400D01*
Y1192000D01*
X952466D01*
X949267Y1193599D02*
Y1193066D01*
X948201Y1192000D01*
X947135Y1193066D01*
Y1193599D01*
X948201Y1192000D02*
Y1190400D01*
X943936Y1193599D02*
X946069D01*
Y1190400D01*
X943936D01*
X946069Y1192000D02*
X945002D01*
X942870Y1190400D02*
Y1193599D01*
X941270D01*
X940737Y1193066D01*
Y1192000D01*
X941270Y1191466D01*
X942870D01*
X941803D02*
X940737Y1190400D01*
D27*
X1181500Y1156100D02*
D03*
X1171500D02*
D03*
X1201500D02*
D03*
X1191500D02*
D03*
X1221500D02*
D03*
X1211500D02*
D03*
X1241500D02*
D03*
X1231500D02*
D03*
X1261500D02*
D03*
X1251500D02*
D03*
X1281500D02*
D03*
X1271500D02*
D03*
X1134500Y1169500D02*
D03*
Y1159500D02*
D03*
D28*
X1124500Y1169500D02*
D03*
Y1159500D02*
D03*
D29*
X655958Y1110000D02*
D03*
D30*
X1084300Y1109950D02*
D03*
X1292000Y1110040D02*
D03*
X862658Y1109690D02*
D03*
D31*
X1284458Y937100D02*
D03*
X1274658Y925000D02*
D03*
X1270058D02*
D03*
X1273058Y936300D02*
D03*
X998958Y1104700D02*
D03*
X971558Y1114400D02*
D03*
X905658Y1051300D02*
D03*
X1001658Y968700D02*
D03*
X962058Y949300D02*
D03*
X1177358Y855700D02*
D03*
X1170758D02*
D03*
Y876700D02*
D03*
X1173758D02*
D03*
X1177758D02*
D03*
X1057358Y917200D02*
D03*
X1049458Y866700D02*
D03*
X1060858Y894000D02*
D03*
X1057358Y911200D02*
D03*
X973358Y1056800D02*
D03*
X999358Y1063400D02*
D03*
X935358Y944200D02*
D03*
X923258Y944500D02*
D03*
X924958Y950200D02*
D03*
X917758Y950100D02*
D03*
X923258Y1034200D02*
D03*
X907058Y1014700D02*
D03*
X913058Y977500D02*
D03*
X913158Y989700D02*
D03*
X906658Y977400D02*
D03*
X877458Y944000D02*
D03*
X891358Y939300D02*
D03*
X860558Y962700D02*
D03*
X875758Y962500D02*
D03*
X693979Y995000D02*
D03*
X676291D02*
D03*
X674658Y976400D02*
D03*
X689958Y966600D02*
D03*
X889358Y951600D02*
D03*
X900958Y950800D02*
D03*
X741058Y962900D02*
D03*
X899658Y944200D02*
D03*
X974058Y951700D02*
D03*
X867258Y976500D02*
D03*
X945658Y939700D02*
D03*
X949758Y939600D02*
D03*
X974158Y948000D02*
D03*
X1002258Y974200D02*
D03*
X988058Y1046700D02*
D03*
X984158Y1046600D02*
D03*
X979858D02*
D03*
X975658D02*
D03*
X1003958Y1021600D02*
D03*
X693979Y1013800D02*
D03*
X676291D02*
D03*
X938158Y1035200D02*
D03*
X934258D02*
D03*
X1210000Y1125400D02*
D03*
X1222700D02*
D03*
X1235200D02*
D03*
X1247900D02*
D03*
X1260400D02*
D03*
X1273100D02*
D03*
X1285600D02*
D03*
X1197400D02*
D03*
Y1112800D02*
D03*
X1285600D02*
D03*
X1273100D02*
D03*
X1260400D02*
D03*
X1247900D02*
D03*
X1235200D02*
D03*
X1222700D02*
D03*
X1210000D02*
D03*
X1210149Y1087600D02*
D03*
X1222849D02*
D03*
X1235349D02*
D03*
X1248049D02*
D03*
X1260549D02*
D03*
X1273249D02*
D03*
X1285749D02*
D03*
X1197549D02*
D03*
Y1100200D02*
D03*
X1285749D02*
D03*
X1273249D02*
D03*
X1260549D02*
D03*
X1248049D02*
D03*
X1235349D02*
D03*
X1222849D02*
D03*
X1210149D02*
D03*
X1210000Y1062400D02*
D03*
X1222700D02*
D03*
X1235200D02*
D03*
X1247900D02*
D03*
X1260400D02*
D03*
X1273100D02*
D03*
X1285600D02*
D03*
X1197400D02*
D03*
Y1075000D02*
D03*
X1285600D02*
D03*
X1273100D02*
D03*
X1260400D02*
D03*
X1247900D02*
D03*
X1235200D02*
D03*
X1222700D02*
D03*
X1210000D02*
D03*
Y1037200D02*
D03*
X1222700D02*
D03*
X1235200D02*
D03*
X1247900D02*
D03*
X1260400D02*
D03*
X1273100D02*
D03*
X1285600D02*
D03*
X1197400D02*
D03*
Y1049800D02*
D03*
X1285600D02*
D03*
X1273100D02*
D03*
X1260400D02*
D03*
X1247900D02*
D03*
X1235200D02*
D03*
X1222700D02*
D03*
X1210000D02*
D03*
Y1012000D02*
D03*
X1222700D02*
D03*
X1235200D02*
D03*
X1247900D02*
D03*
X1260400D02*
D03*
X1273100D02*
D03*
X1285600D02*
D03*
X1197400D02*
D03*
Y1024600D02*
D03*
X1285600D02*
D03*
X1273100D02*
D03*
X1260400D02*
D03*
X1247900D02*
D03*
X1235200D02*
D03*
X1222700D02*
D03*
X1210000D02*
D03*
X1209949Y986821D02*
D03*
X1222649D02*
D03*
X1235149D02*
D03*
X1247849D02*
D03*
X1260349D02*
D03*
X1273049D02*
D03*
X1285049D02*
D03*
X1197349D02*
D03*
Y999421D02*
D03*
X1285549D02*
D03*
X1273049D02*
D03*
X1260349D02*
D03*
X1247849D02*
D03*
X1235149D02*
D03*
X1222649D02*
D03*
X1209949D02*
D03*
X1210000Y961600D02*
D03*
X1222700D02*
D03*
X1235200D02*
D03*
X1247900D02*
D03*
X1260400D02*
D03*
X1273100D02*
D03*
X1285000D02*
D03*
X1197400D02*
D03*
Y974200D02*
D03*
X1285600D02*
D03*
X1273100D02*
D03*
X1260400D02*
D03*
X1247900D02*
D03*
X1235200D02*
D03*
X1222700D02*
D03*
X1210000D02*
D03*
Y936400D02*
D03*
X1222700D02*
D03*
X1235200D02*
D03*
X1247900D02*
D03*
X1260400D02*
D03*
X1197400Y949000D02*
D03*
X1285600D02*
D03*
X1273100D02*
D03*
X1260400D02*
D03*
X1247900D02*
D03*
X1235200D02*
D03*
X1222700D02*
D03*
X1210000D02*
D03*
X1147758Y1116200D02*
D03*
Y1103400D02*
D03*
X1147858Y1065700D02*
D03*
Y1053200D02*
D03*
Y1040500D02*
D03*
X1147258Y952100D02*
D03*
X1147058Y965000D02*
D03*
X1147658Y995500D02*
D03*
X1154258Y1008700D02*
D03*
X1147758Y1027700D02*
D03*
X1082158Y1027800D02*
D03*
Y1015300D02*
D03*
X1189658Y943300D02*
D03*
X1151758Y944600D02*
D03*
X666358Y857700D02*
D03*
X1053458Y867800D02*
D03*
X1057658D02*
D03*
X1279558Y1134100D02*
D03*
X1289458Y999500D02*
D03*
Y1049800D02*
D03*
Y1075100D02*
D03*
Y1100200D02*
D03*
X1289658Y1024600D02*
D03*
X1043158Y861700D02*
D03*
X1061758Y870300D02*
D03*
X1114958Y874300D02*
D03*
X1083758Y861400D02*
D03*
X1097358Y861300D02*
D03*
X1151458Y855800D02*
D03*
X1214758Y856700D02*
D03*
X1228558Y856800D02*
D03*
X1165358Y855500D02*
D03*
X1071158Y872600D02*
D03*
X1093758Y912200D02*
D03*
X1131758D02*
D03*
X1164958D02*
D03*
X1195758D02*
D03*
X1064358Y909500D02*
D03*
X1249758Y912100D02*
D03*
X1015458Y874400D02*
D03*
X1011358Y871700D02*
D03*
X966158Y873200D02*
D03*
X952658D02*
D03*
X833358Y858600D02*
D03*
X819758Y858500D02*
D03*
X770158D02*
D03*
X756258D02*
D03*
X702958D02*
D03*
X683958Y860700D02*
D03*
X903058Y858600D02*
D03*
X889158Y858700D02*
D03*
X909658Y877600D02*
D03*
X959358Y1032500D02*
D03*
Y1028500D02*
D03*
X1005558Y957600D02*
D03*
X1001458D02*
D03*
X967658Y939900D02*
D03*
X964358D02*
D03*
X971758Y1046600D02*
D03*
X987758Y1037400D02*
D03*
X971558Y1053700D02*
D03*
X1149558Y1019200D02*
D03*
X916358Y1026400D02*
D03*
X855758Y1008800D02*
D03*
X796958D02*
D03*
X738258Y1008900D02*
D03*
X823907Y962621D02*
D03*
X808020D02*
D03*
X792132D02*
D03*
X722502Y963321D02*
D03*
X853858Y993800D02*
D03*
X797158Y976900D02*
D03*
X738358D02*
D03*
Y991600D02*
D03*
X797258D02*
D03*
X977158Y867500D02*
D03*
X977258Y862600D02*
D03*
X802058Y858700D02*
D03*
X871458Y858600D02*
D03*
X909658Y852400D02*
D03*
X989358Y996000D02*
D03*
X1144058Y1025200D02*
D03*
X949258Y975600D02*
D03*
X945458D02*
D03*
X975558Y995800D02*
D03*
X941058Y1107900D02*
D03*
X938658Y1105100D02*
D03*
X998158Y1075900D02*
D03*
X1003658Y1032800D02*
D03*
X1002158Y1045000D02*
D03*
Y1041300D02*
D03*
X1005658Y1093100D02*
D03*
X1005558Y1096900D02*
D03*
X971058Y1109600D02*
D03*
X974458D02*
D03*
X1001958Y1122500D02*
D03*
X1005558Y1127500D02*
D03*
X959358Y1042100D02*
D03*
X962658Y1046600D02*
D03*
Y1050800D02*
D03*
X958558Y1050900D02*
D03*
X1147758Y1126500D02*
D03*
X941758Y1099200D02*
D03*
X925758Y1081000D02*
D03*
X940458Y1047400D02*
D03*
X1065258Y892200D02*
D03*
X1069258D02*
D03*
X913958Y877600D02*
D03*
X914058Y850500D02*
D03*
X854458Y930200D02*
D03*
X1056958Y894700D02*
D03*
X1120858Y912100D02*
D03*
X925058Y976300D02*
D03*
X1048358Y989700D02*
D03*
Y971000D02*
D03*
Y953100D02*
D03*
Y985900D02*
D03*
Y982300D02*
D03*
Y957500D02*
D03*
Y962000D02*
D03*
X1082258Y1002800D02*
D03*
X1145858Y1078600D02*
D03*
X1144658Y1091100D02*
D03*
X1157058Y1084600D02*
D03*
X1083758Y1085000D02*
D03*
X902408Y1081550D02*
D03*
X864158Y1012000D02*
D03*
X902458Y1073500D02*
D03*
X1048358Y939800D02*
D03*
X1048458Y948900D02*
D03*
X966558Y1033300D02*
D03*
Y1038300D02*
D03*
X972658Y1033200D02*
D03*
X1049058Y1021900D02*
D03*
X1148058Y982800D02*
D03*
X1168258Y958500D02*
D03*
X1015358Y1135000D02*
D03*
X1119158Y1129100D02*
D03*
X847158Y1131200D02*
D03*
Y1117300D02*
D03*
X856058Y1081800D02*
D03*
X844858Y1087300D02*
D03*
X795358Y1081600D02*
D03*
X785658Y1086900D02*
D03*
X788558Y1119200D02*
D03*
X738458Y1111300D02*
D03*
X734058Y1127700D02*
D03*
X732458Y1096000D02*
D03*
X738158Y1081600D02*
D03*
X902458Y1086300D02*
D03*
X906758Y1087300D02*
D03*
X906358Y1117000D02*
D03*
X788358Y1130800D02*
D03*
X733558Y1066900D02*
D03*
X794558Y1066500D02*
D03*
X844758Y1047600D02*
D03*
X853158Y1066400D02*
D03*
X906758Y1073400D02*
D03*
X898058Y932900D02*
D03*
X895058Y909600D02*
D03*
X894758Y918600D02*
D03*
X898958Y921900D02*
D03*
X899058Y907600D02*
D03*
X1234358Y856800D02*
D03*
X1238958D02*
D03*
X965058Y1127400D02*
D03*
X946758Y1124000D02*
D03*
X935458Y1127400D02*
D03*
X990558Y1127900D02*
D03*
X999958Y1127400D02*
D03*
X686458Y976500D02*
D03*
X978858Y968300D02*
D03*
X914058Y847000D02*
D03*
X913958Y881300D02*
D03*
X1159558Y919900D02*
D03*
X914858Y906400D02*
D03*
X831258Y930900D02*
D03*
X913458Y1094600D02*
D03*
D32*
X1168448Y1188912D02*
G03*
X1160459Y1181115I410J-8412D01*
G01*
D33*
X1310558Y1155602D02*
G03*
X1277059Y1188798I-33100J98D01*
G01*
X1303810Y1149304D02*
G03*
X1273059Y1169197I-30351J-13205D01*
G01*
X651095Y864522D02*
G03*
X676404Y839401I25121J0D01*
G01*
X1275312D02*
G03*
X1300622Y864522I188J25121D01*
G01*
X1310558Y925000D02*
Y1155702D01*
X1300622Y915063D02*
X1310558Y925000D01*
X1168358Y1188800D02*
X1277658D01*
X640058Y952940D02*
Y1143600D01*
X676405Y839400D02*
X1275312D01*
X1300622Y864522D02*
Y913863D01*
X1098558Y1160700D02*
X1117808Y1179950D01*
X686858Y1160700D02*
X1098558D01*
X1266761Y1169198D02*
X1273459D01*
X651095Y864522D02*
Y921637D01*
X655958Y926500D01*
D34*
X720506Y1178800D02*
G03*
X720506Y1178800I-11048J0D01*
G01*
X683358Y1189888D02*
X709558D01*
X657258Y848800D02*
X666358Y857700D01*
X1138858Y1178900D02*
X1142058Y1175700D01*
X1293258D01*
D35*
X662473Y1109960D02*
G03*
X662473Y1109960I-6617J0D01*
G01*
D36*
X641839Y1144308D02*
G03*
X683211Y1187304I16120J25892D01*
G01*
D37*
X844272Y884711D02*
G03*
X843658Y919900I-614J17589D01*
G01*
D38*
X935000Y1004300D02*
D03*
X929100D02*
D03*
X1009500Y1072200D02*
D03*
X1015400D02*
D03*
X935000Y1071400D02*
D03*
X929100D02*
D03*
X1009500Y1064600D02*
D03*
X1015400D02*
D03*
X1009500Y1056800D02*
D03*
X1015400D02*
D03*
X1009500Y1049000D02*
D03*
X1015400D02*
D03*
X1009500Y1040500D02*
D03*
X1015400D02*
D03*
X1009500Y1007500D02*
D03*
X1015400D02*
D03*
X1009500Y1015500D02*
D03*
X1015400D02*
D03*
X1009500Y1024100D02*
D03*
X1015400D02*
D03*
X1009500Y1032500D02*
D03*
X1015400D02*
D03*
X935000Y1040300D02*
D03*
X929100D02*
D03*
X935000Y1048600D02*
D03*
X929100D02*
D03*
X935000Y1056200D02*
D03*
X929100D02*
D03*
X935000Y1063800D02*
D03*
X929100D02*
D03*
X935000Y1030100D02*
D03*
X929100D02*
D03*
X935000Y1020100D02*
D03*
X929100D02*
D03*
X935000Y1012200D02*
D03*
X929100D02*
D03*
D39*
X950559Y1058748D02*
D03*
X950559Y1055598D02*
D03*
Y1052449D02*
D03*
Y1049299D02*
D03*
Y1046150D02*
D03*
X950559Y1043000D02*
D03*
Y1039850D02*
D03*
X950559Y1036701D02*
D03*
Y1033551D02*
D03*
Y1030402D02*
D03*
X950559Y1027252D02*
D03*
X995441Y1058748D02*
D03*
Y1055598D02*
D03*
Y1052449D02*
D03*
Y1049299D02*
D03*
Y1046150D02*
D03*
Y1043000D02*
D03*
Y1039850D02*
D03*
Y1036701D02*
D03*
Y1033551D02*
D03*
Y1030402D02*
D03*
Y1027252D02*
D03*
D40*
X957252Y1020559D02*
D03*
X960402D02*
D03*
X963551D02*
D03*
X966701D02*
D03*
X969850D02*
D03*
X973000D02*
D03*
X976150D02*
D03*
X979299D02*
D03*
X982449Y1020559D02*
D03*
X985598Y1020559D02*
D03*
X988748D02*
D03*
X957252Y1065441D02*
D03*
X960402D02*
D03*
X963551D02*
D03*
X966701D02*
D03*
X969850D02*
D03*
X973000D02*
D03*
X976150D02*
D03*
X979299D02*
D03*
X982449D02*
D03*
X985598D02*
D03*
X988748D02*
D03*
D41*
X991256Y951393D02*
D03*
Y953952D02*
D03*
Y959070D02*
D03*
Y956511D02*
D03*
Y964188D02*
D03*
Y961629D02*
D03*
Y969307D02*
D03*
Y966748D02*
D03*
X1013500D02*
D03*
Y969307D02*
D03*
Y961629D02*
D03*
Y964188D02*
D03*
Y956511D02*
D03*
Y959070D02*
D03*
Y953952D02*
D03*
Y951393D02*
D03*
X933056D02*
D03*
Y953952D02*
D03*
Y959070D02*
D03*
Y956511D02*
D03*
Y964188D02*
D03*
Y961629D02*
D03*
Y969307D02*
D03*
Y966748D02*
D03*
X955300D02*
D03*
Y969307D02*
D03*
Y961629D02*
D03*
Y964188D02*
D03*
Y956511D02*
D03*
Y959070D02*
D03*
Y953952D02*
D03*
Y951393D02*
D03*
D42*
X1014191Y906156D02*
D03*
X1014191Y894794D02*
D03*
X929191Y913794D02*
D03*
X929191Y925156D02*
D03*
X939191D02*
D03*
X939191Y913794D02*
D03*
X949191D02*
D03*
X949191Y925156D02*
D03*
X959191D02*
D03*
X959191Y913794D02*
D03*
X969191D02*
D03*
X969191Y925156D02*
D03*
X979191D02*
D03*
X979191Y913794D02*
D03*
X989191D02*
D03*
X989191Y925156D02*
D03*
X999191D02*
D03*
X999191Y913794D02*
D03*
X1009191D02*
D03*
X1009191Y925156D02*
D03*
X934191Y906156D02*
D03*
X934191Y894794D02*
D03*
X944191D02*
D03*
X944191Y906156D02*
D03*
X954191D02*
D03*
X954191Y894794D02*
D03*
X964191D02*
D03*
X964191Y906156D02*
D03*
X974191D02*
D03*
X974191Y894794D02*
D03*
X984191D02*
D03*
X984191Y906156D02*
D03*
X994191D02*
D03*
X994191Y894794D02*
D03*
X1004191D02*
D03*
X1004191Y906156D02*
D03*
D43*
X970558Y961600D02*
D03*
Y967500D02*
D03*
X943300Y1081600D02*
D03*
Y1087500D02*
D03*
X951500Y1081600D02*
D03*
Y1087500D02*
D03*
X959200Y1081600D02*
D03*
Y1087500D02*
D03*
X999900Y1081600D02*
D03*
Y1087500D02*
D03*
X992100Y1081600D02*
D03*
Y1087500D02*
D03*
X983100Y1081600D02*
D03*
Y1087500D02*
D03*
X975400Y1081600D02*
D03*
Y1087500D02*
D03*
X967700Y1081600D02*
D03*
Y1087500D02*
D03*
X1007800Y1081600D02*
D03*
Y1087500D02*
D03*
X935700Y1081600D02*
D03*
Y1087500D02*
D03*
X937900Y1133000D02*
D03*
Y1138900D02*
D03*
X1010000Y1133000D02*
D03*
Y1138900D02*
D03*
X970100Y1133000D02*
D03*
Y1138900D02*
D03*
X977900Y1133000D02*
D03*
Y1138900D02*
D03*
X986600Y1133000D02*
D03*
Y1138900D02*
D03*
X994400Y1133000D02*
D03*
Y1138900D02*
D03*
X1002200Y1133000D02*
D03*
Y1138900D02*
D03*
X962300Y1133000D02*
D03*
Y1138900D02*
D03*
X953900Y1133000D02*
D03*
Y1138900D02*
D03*
X945500Y1133000D02*
D03*
Y1138900D02*
D03*
X1000900Y1007000D02*
D03*
Y1001100D02*
D03*
X993100Y1007000D02*
D03*
Y1001100D02*
D03*
X985300Y1007000D02*
D03*
Y1001100D02*
D03*
X977500Y1007000D02*
D03*
Y1001100D02*
D03*
X944400Y1007000D02*
D03*
Y1001100D02*
D03*
X952500Y1007000D02*
D03*
Y1001100D02*
D03*
X960600Y1007000D02*
D03*
Y1001100D02*
D03*
X968700Y1007000D02*
D03*
Y1001100D02*
D03*
D44*
X957405Y1102018D02*
D03*
X988901Y1102018D02*
D03*
X988901Y1119735D02*
D03*
X957405Y1119735D02*
D03*
D45*
X1261798Y881360D02*
X1306738Y926300D01*
X794158Y940600D02*
X844058D01*
D46*
X941258Y1136000D02*
X945058Y1139800D01*
X933258Y1136000D02*
X941258D01*
X989958D02*
X993558Y1139600D01*
X982958Y1136000D02*
X989958D01*
X982158Y1135200D02*
X982958Y1136000D01*
X983358Y1127900D02*
X990558D01*
X982158Y1129100D02*
X983358Y1127900D01*
X982158Y1129100D02*
Y1135200D01*
X947458Y1084600D02*
X963458D01*
X932058Y1060200D02*
Y1067500D01*
D47*
X1175158Y883600D02*
X1192758Y901200D01*
X1174758D02*
X1192758D01*
D48*
X1164208Y887650D02*
X1174758Y898200D01*
D49*
X1050558Y883600D02*
X1171958D01*
X1082158Y896400D02*
X1184758D01*
X1069258Y883500D02*
X1082158Y896400D01*
X1037858Y896300D02*
Y955100D01*
X1020912Y951947D02*
X1037858Y935000D01*
Y896300D02*
X1050558Y883600D01*
D50*
X721958Y1180000D02*
X1273558D01*
D51*
X1205458Y854800D02*
X1212958Y862300D01*
X1119358Y883400D02*
X1124858Y877900D01*
X1185758Y854800D02*
X1200558Y869600D01*
X1171658Y854800D02*
X1205458D01*
X1020758Y970200D02*
X1037858Y953100D01*
X1261500Y1156242D02*
Y1180400D01*
D52*
X938058Y1030400D02*
X943358Y1035700D01*
X935758Y1030400D02*
X938058D01*
X943358Y1035700D02*
Y1036100D01*
X947109Y1039850D01*
X950559D01*
D53*
X1293658Y1182000D02*
X1308658Y1157300D01*
D54*
X1128483Y1176215D02*
D03*
D55*
X1296658Y857650D02*
D03*
D56*
X1295808Y895300D02*
D03*
D57*
X1303608Y1035700D02*
D03*
D58*
X1291608Y1176250D02*
D03*
D59*
X1163908Y1184100D02*
D03*
D60*
X1164008Y1181050D02*
D03*
D61*
X1228408Y1181900D02*
D03*
D62*
X718658Y1169950D02*
D03*
D63*
X700508Y1170050D02*
D03*
D64*
Y1187400D02*
D03*
D65*
X709708Y1165700D02*
D03*
D66*
X1199458Y858500D02*
D03*
D67*
X1124608Y881200D02*
D03*
D68*
X1195208Y862350D02*
D03*
D69*
X1149508Y880300D02*
D03*
D70*
X1077208Y887700D02*
D03*
D71*
X1177058Y892050D02*
D03*
D72*
X1127308Y889950D02*
D03*
D73*
X1034158Y942750D02*
D03*
D74*
X1023558Y961900D02*
D03*
D75*
X1029193Y952535D02*
D03*
D76*
X722008Y1169350D02*
D03*
D77*
X693308Y1175050D02*
D03*
D78*
X652808Y949850D02*
D03*
D79*
X662758Y947900D02*
D03*
D80*
X912158Y1170300D02*
D03*
D81*
X1106308Y1174100D02*
D03*
D82*
X1104008Y1169050D02*
D03*
D83*
X800308Y1151500D02*
D03*
D84*
X921472Y1156886D02*
D03*
D85*
X687308Y1094100D02*
D03*
D86*
X665808Y1064900D02*
D03*
D87*
X654308Y1128500D02*
D03*
D88*
X646158Y1111300D02*
D03*
D89*
X681408Y1143200D02*
D03*
D90*
X748658Y902300D02*
D03*
D91*
X704158Y872450D02*
D03*
D92*
X665058Y866750D02*
D03*
D93*
X735258Y846750D02*
D03*
D94*
X894658Y844650D02*
D03*
D95*
X668947Y853339D02*
D03*
D96*
X678334Y865704D02*
D03*
D97*
X746727Y876282D02*
D03*
D98*
X800373Y849162D02*
D03*
D99*
X695966Y1042842D02*
D03*
D100*
X716546Y1136512D02*
D03*
D101*
X994858Y843700D02*
D03*
D102*
X826858Y926900D02*
D03*
D103*
X827458Y935600D02*
D03*
D104*
X846158Y902800D02*
D03*
D105*
X669233Y1022425D02*
D03*
D106*
X644658Y1021150D02*
D03*
D107*
X653008Y988850D02*
D03*
D108*
X741258Y934650D02*
D03*
D109*
X1257608Y873950D02*
D03*
D110*
X1264658Y851250D02*
D03*
D111*
X1287958Y854000D02*
D03*
D112*
X1285458Y847550D02*
D03*
D113*
X1282558Y845050D02*
D03*
D114*
X1238099Y846791D02*
D03*
D115*
X1241983Y844225D02*
D03*
D116*
X1243033Y860725D02*
D03*
D117*
X1209897Y874061D02*
D03*
D118*
X1206958Y864700D02*
D03*
D119*
X1214358Y870250D02*
D03*
D120*
X1286473Y899165D02*
D03*
D121*
X1286858Y893350D02*
D03*
D122*
X962858Y943250D02*
D03*
D123*
X915958Y887700D02*
D03*
D124*
X914908Y880200D02*
D03*
D125*
X1260676Y1174317D02*
D03*
D126*
X1284608Y1170900D02*
D03*
D127*
X1299980Y1161422D02*
D03*
D128*
X1307658Y1150100D02*
D03*
D129*
X649058Y945999D02*
D03*
M02*
