G04*
G04 #@! TF.GenerationSoftware,Altium Limited,CircuitStudio,1.5.2 (30)*
G04*
G04 Layer_Color=9634006*
%FSLAX25Y25*%
%MOIN*%
G70*
G01*
G75*
G04:AMPARAMS|DCode=10|XSize=47.24mil|YSize=47.24mil|CornerRadius=15.59mil|HoleSize=0mil|Usage=FLASHONLY|Rotation=0.000|XOffset=0mil|YOffset=0mil|HoleType=Round|Shape=RoundedRectangle|*
%AMROUNDEDRECTD10*
21,1,0.04724,0.01606,0,0,0.0*
21,1,0.01606,0.04724,0,0,0.0*
1,1,0.03118,0.00803,-0.00803*
1,1,0.03118,-0.00803,-0.00803*
1,1,0.03118,-0.00803,0.00803*
1,1,0.03118,0.00803,0.00803*
%
%ADD10ROUNDEDRECTD10*%
G04:AMPARAMS|DCode=11|XSize=72mil|YSize=46mil|CornerRadius=13.8mil|HoleSize=0mil|Usage=FLASHONLY|Rotation=90.000|XOffset=0mil|YOffset=0mil|HoleType=Round|Shape=RoundedRectangle|*
%AMROUNDEDRECTD11*
21,1,0.07200,0.01840,0,0,90.0*
21,1,0.04440,0.04600,0,0,90.0*
1,1,0.02760,0.00920,0.02220*
1,1,0.02760,0.00920,-0.02220*
1,1,0.02760,-0.00920,-0.02220*
1,1,0.02760,-0.00920,0.02220*
%
%ADD11ROUNDEDRECTD11*%
G04:AMPARAMS|DCode=12|XSize=47.24mil|YSize=47.24mil|CornerRadius=15.59mil|HoleSize=0mil|Usage=FLASHONLY|Rotation=90.000|XOffset=0mil|YOffset=0mil|HoleType=Round|Shape=RoundedRectangle|*
%AMROUNDEDRECTD12*
21,1,0.04724,0.01606,0,0,90.0*
21,1,0.01606,0.04724,0,0,90.0*
1,1,0.03118,0.00803,0.00803*
1,1,0.03118,0.00803,-0.00803*
1,1,0.03118,-0.00803,-0.00803*
1,1,0.03118,-0.00803,0.00803*
%
%ADD12ROUNDEDRECTD12*%
G04:AMPARAMS|DCode=13|XSize=47.24mil|YSize=47.24mil|CornerRadius=15.59mil|HoleSize=0mil|Usage=FLASHONLY|Rotation=45.000|XOffset=0mil|YOffset=0mil|HoleType=Round|Shape=RoundedRectangle|*
%AMROUNDEDRECTD13*
21,1,0.04724,0.01606,0,0,45.0*
21,1,0.01606,0.04724,0,0,45.0*
1,1,0.03118,0.01136,0.00000*
1,1,0.03118,0.00000,-0.01136*
1,1,0.03118,-0.01136,0.00000*
1,1,0.03118,0.00000,0.01136*
%
%ADD13ROUNDEDRECTD13*%
%ADD26C,0.00600*%
%ADD155C,0.11811*%
D10*
X658752Y1001700D02*
D03*
X666952D02*
D03*
X1122658Y1027500D02*
D03*
X1130858D02*
D03*
X904325Y957706D02*
D03*
X912525D02*
D03*
X888938D02*
D03*
X897138D02*
D03*
X873550D02*
D03*
X881750D02*
D03*
X858163D02*
D03*
X866363D02*
D03*
X835695D02*
D03*
X843894D02*
D03*
X820307D02*
D03*
X828507D02*
D03*
X804920D02*
D03*
X813120D02*
D03*
X789532D02*
D03*
X797732D02*
D03*
X767058D02*
D03*
X775257D02*
D03*
X751776D02*
D03*
X759976D02*
D03*
X736389D02*
D03*
X744589D02*
D03*
X721002D02*
D03*
X729202D02*
D03*
X694295D02*
D03*
X702494D02*
D03*
X676507D02*
D03*
X684707D02*
D03*
X658720D02*
D03*
X666920D02*
D03*
X977423Y957657D02*
D03*
X985623D02*
D03*
X694152Y983600D02*
D03*
X702352D02*
D03*
X676452D02*
D03*
X684652D02*
D03*
X658752D02*
D03*
X666952D02*
D03*
X658752Y1019700D02*
D03*
X666952D02*
D03*
X676452D02*
D03*
X684652D02*
D03*
X694152D02*
D03*
X702352D02*
D03*
X738700Y1046887D02*
D03*
X746900D02*
D03*
X797400D02*
D03*
X805600D02*
D03*
X856100D02*
D03*
X864300D02*
D03*
X914800D02*
D03*
X923000D02*
D03*
X738700Y1059594D02*
D03*
X746900D02*
D03*
X797400D02*
D03*
X805600D02*
D03*
X856100D02*
D03*
X864300D02*
D03*
X914800D02*
D03*
X923000D02*
D03*
X738700Y1072100D02*
D03*
X746900D02*
D03*
X797400D02*
D03*
X805600D02*
D03*
X856100D02*
D03*
X864300D02*
D03*
X914800D02*
D03*
X923000D02*
D03*
X738766Y1131157D02*
D03*
X746966D02*
D03*
X797466D02*
D03*
X805666D02*
D03*
X856266D02*
D03*
X864466D02*
D03*
X914966D02*
D03*
X923166D02*
D03*
X1015750Y939780D02*
D03*
X1023950D02*
D03*
X1015750Y952380D02*
D03*
X1023950D02*
D03*
X1015750Y964980D02*
D03*
X1023950D02*
D03*
X1015750Y977580D02*
D03*
X1023950D02*
D03*
X1015750Y990180D02*
D03*
X1023950D02*
D03*
X1015750Y1002780D02*
D03*
X1023950D02*
D03*
X1015750Y1015380D02*
D03*
X1023950D02*
D03*
X1015750Y1027980D02*
D03*
X1023950D02*
D03*
X1015750Y1040580D02*
D03*
X1023950D02*
D03*
X1015750Y1053180D02*
D03*
X1023950D02*
D03*
X1015750Y1065780D02*
D03*
X1023950D02*
D03*
X1015750Y1078380D02*
D03*
X1023950D02*
D03*
X1015750Y1090980D02*
D03*
X1023950D02*
D03*
X1015750Y1103580D02*
D03*
X1023950D02*
D03*
X1015750Y1116180D02*
D03*
X1023950D02*
D03*
X1015750Y1128780D02*
D03*
X1023950D02*
D03*
X1089050Y939780D02*
D03*
X1097250D02*
D03*
X1089050Y952380D02*
D03*
X1097250D02*
D03*
X1089050Y964980D02*
D03*
X1097250D02*
D03*
X1089050Y977580D02*
D03*
X1097250D02*
D03*
X1089050Y990180D02*
D03*
X1097250D02*
D03*
X1089050Y1002780D02*
D03*
X1097250D02*
D03*
X1089050Y1015380D02*
D03*
X1097250D02*
D03*
X1089050Y1027980D02*
D03*
X1097250D02*
D03*
X1089050Y1040580D02*
D03*
X1097250D02*
D03*
X1089050Y1053180D02*
D03*
X1097250D02*
D03*
X1089050Y1065780D02*
D03*
X1097250D02*
D03*
X1089050Y1078380D02*
D03*
X1097250D02*
D03*
X1089050Y1090980D02*
D03*
X1097250D02*
D03*
X1089050Y1103580D02*
D03*
X1097250D02*
D03*
X1089050Y1116180D02*
D03*
X1097250D02*
D03*
X1089050Y1128780D02*
D03*
X1097250D02*
D03*
X1155450Y939780D02*
D03*
X1163650D02*
D03*
X1155450Y952380D02*
D03*
X1163650D02*
D03*
X1155450Y964980D02*
D03*
X1163650D02*
D03*
X1155450Y977580D02*
D03*
X1163650D02*
D03*
X1155450Y990180D02*
D03*
X1163650D02*
D03*
X1155450Y1002780D02*
D03*
X1163650D02*
D03*
X1155450Y1015380D02*
D03*
X1163650D02*
D03*
X1155450Y1027980D02*
D03*
X1163650D02*
D03*
X1155450Y1040580D02*
D03*
X1163650D02*
D03*
X1155450Y1053180D02*
D03*
X1163650D02*
D03*
X1155450Y1065780D02*
D03*
X1163650D02*
D03*
X1155450Y1078380D02*
D03*
X1163650D02*
D03*
X1155450Y1090980D02*
D03*
X1163650D02*
D03*
X1155450Y1103580D02*
D03*
X1163650D02*
D03*
X1155450Y1116180D02*
D03*
X1163650D02*
D03*
X1263500Y894300D02*
D03*
X1271700D02*
D03*
X1263500Y905800D02*
D03*
X1271700D02*
D03*
X1230819Y912000D02*
D03*
X1239019D02*
D03*
X1201125D02*
D03*
X1209325D02*
D03*
X1170644D02*
D03*
X1178844D02*
D03*
X1140557D02*
D03*
X1148757D02*
D03*
X1099769D02*
D03*
X1107969D02*
D03*
X1069682D02*
D03*
X1077882D02*
D03*
X1039594D02*
D03*
X1047795D02*
D03*
X1009507D02*
D03*
X1017707D02*
D03*
X968720D02*
D03*
X976920D02*
D03*
X938632D02*
D03*
X946832D02*
D03*
X908545D02*
D03*
X916745D02*
D03*
X878458D02*
D03*
X886658D02*
D03*
X836570Y930800D02*
D03*
X844770D02*
D03*
X806483D02*
D03*
X814683D02*
D03*
X776395D02*
D03*
X784595D02*
D03*
X746308D02*
D03*
X754508D02*
D03*
X699727Y891313D02*
D03*
X707927D02*
D03*
X699727Y901513D02*
D03*
X707927D02*
D03*
X699727Y911713D02*
D03*
X707927D02*
D03*
X699727Y922013D02*
D03*
X707927D02*
D03*
X961476Y957706D02*
D03*
X969676D02*
D03*
X945689D02*
D03*
X953889D02*
D03*
X929802D02*
D03*
X938002D02*
D03*
X983858Y1117300D02*
D03*
X992058D02*
D03*
X978458Y1001400D02*
D03*
X986658D02*
D03*
X978558Y1020000D02*
D03*
X986758D02*
D03*
X915000Y983600D02*
D03*
X923200D02*
D03*
X856200D02*
D03*
X864400D02*
D03*
X797200D02*
D03*
X805400D02*
D03*
X738500D02*
D03*
X746700D02*
D03*
X915000Y1001800D02*
D03*
X923200D02*
D03*
X856200Y1001900D02*
D03*
X864400D02*
D03*
X797200Y1001800D02*
D03*
X805400D02*
D03*
X738500D02*
D03*
X746700D02*
D03*
X915100Y1019800D02*
D03*
X923300D02*
D03*
X856100D02*
D03*
X864300D02*
D03*
X797200D02*
D03*
X805400D02*
D03*
X738500D02*
D03*
X746700D02*
D03*
X914800Y1087400D02*
D03*
X923000D02*
D03*
X856100D02*
D03*
X864300D02*
D03*
X797400D02*
D03*
X805600D02*
D03*
X738700D02*
D03*
X746900D02*
D03*
X914800Y1117083D02*
D03*
X923000D02*
D03*
X856100D02*
D03*
X864300D02*
D03*
X797400D02*
D03*
X805600D02*
D03*
X738700D02*
D03*
X746900D02*
D03*
X1155450Y1128780D02*
D03*
X1163650D02*
D03*
X694152Y1001700D02*
D03*
X702352D02*
D03*
X676452D02*
D03*
X684652D02*
D03*
D11*
X871670Y849699D02*
D03*
Y881195D02*
D03*
X889386D02*
D03*
Y849699D02*
D03*
X666333D02*
D03*
Y881195D02*
D03*
X684049D02*
D03*
Y849699D02*
D03*
X703033D02*
D03*
Y881195D02*
D03*
X720749D02*
D03*
Y849699D02*
D03*
X738820D02*
D03*
Y881195D02*
D03*
X756536D02*
D03*
Y849699D02*
D03*
X770307D02*
D03*
Y881195D02*
D03*
X788024D02*
D03*
Y849699D02*
D03*
X801801D02*
D03*
Y881195D02*
D03*
X819518D02*
D03*
Y849699D02*
D03*
X833288D02*
D03*
Y881195D02*
D03*
X851005D02*
D03*
Y849699D02*
D03*
X1265012D02*
D03*
Y881195D02*
D03*
X1282729D02*
D03*
Y849699D02*
D03*
X1228437D02*
D03*
Y881195D02*
D03*
X1246154D02*
D03*
Y849699D02*
D03*
X1196950D02*
D03*
Y881195D02*
D03*
X1214666D02*
D03*
Y849699D02*
D03*
X1165456D02*
D03*
Y881195D02*
D03*
X1183173D02*
D03*
Y849699D02*
D03*
X1133969D02*
D03*
Y881195D02*
D03*
X1151685D02*
D03*
Y849699D02*
D03*
X1002819D02*
D03*
Y881195D02*
D03*
X1020536D02*
D03*
Y849699D02*
D03*
X1034307D02*
D03*
Y881195D02*
D03*
X1052023D02*
D03*
Y849699D02*
D03*
X1065800D02*
D03*
Y881195D02*
D03*
X1083517D02*
D03*
Y849699D02*
D03*
X1097288D02*
D03*
Y881195D02*
D03*
X1115004D02*
D03*
Y849699D02*
D03*
X966138D02*
D03*
Y881195D02*
D03*
X983855D02*
D03*
Y849699D02*
D03*
X934651D02*
D03*
Y881195D02*
D03*
X952367D02*
D03*
Y849699D02*
D03*
X903157D02*
D03*
Y881195D02*
D03*
X920874D02*
D03*
Y849699D02*
D03*
D12*
X726572Y1095732D02*
D03*
Y1103932D02*
D03*
X785445Y1095732D02*
D03*
Y1103932D02*
D03*
X844539Y1095732D02*
D03*
Y1103932D02*
D03*
X903239Y1095732D02*
D03*
Y1103932D02*
D03*
X982358Y1083200D02*
D03*
Y1091400D02*
D03*
X958158Y1095300D02*
D03*
Y1103500D02*
D03*
D13*
X1279611Y936781D02*
D03*
X1285409Y942579D02*
D03*
X1267011Y936781D02*
D03*
X1272809Y942579D02*
D03*
X1254411Y936781D02*
D03*
X1260209Y942579D02*
D03*
X1241811Y936781D02*
D03*
X1247609Y942579D02*
D03*
X1229211Y936781D02*
D03*
X1235009Y942579D02*
D03*
X1216611Y936781D02*
D03*
X1222409Y942579D02*
D03*
X1204011Y936781D02*
D03*
X1209809Y942579D02*
D03*
X1191411Y936781D02*
D03*
X1197209Y942579D02*
D03*
X1279611Y949381D02*
D03*
X1285409Y955179D02*
D03*
X1267011Y949381D02*
D03*
X1272809Y955179D02*
D03*
X1254411Y949381D02*
D03*
X1260209Y955179D02*
D03*
X1241811Y949381D02*
D03*
X1247609Y955179D02*
D03*
X1229211Y949381D02*
D03*
X1235009Y955179D02*
D03*
X1216611Y949381D02*
D03*
X1222409Y955179D02*
D03*
X1204011Y949381D02*
D03*
X1209809Y955179D02*
D03*
X1191411Y949381D02*
D03*
X1197209Y955179D02*
D03*
X1279611Y961981D02*
D03*
X1285409Y967779D02*
D03*
X1267011Y961981D02*
D03*
X1272809Y967779D02*
D03*
X1254411Y961981D02*
D03*
X1260209Y967779D02*
D03*
X1241811Y961981D02*
D03*
X1247609Y967779D02*
D03*
X1229211Y961981D02*
D03*
X1235009Y967779D02*
D03*
X1216611Y961981D02*
D03*
X1222409Y967779D02*
D03*
X1204011Y961981D02*
D03*
X1209809Y967779D02*
D03*
X1191411Y961981D02*
D03*
X1197209Y967779D02*
D03*
X1279611Y974581D02*
D03*
X1285409Y980379D02*
D03*
X1267011Y974581D02*
D03*
X1272809Y980379D02*
D03*
X1254411Y974581D02*
D03*
X1260209Y980379D02*
D03*
X1241811Y974581D02*
D03*
X1247609Y980379D02*
D03*
X1229211Y974581D02*
D03*
X1235009Y980379D02*
D03*
X1216611Y974581D02*
D03*
X1222409Y980379D02*
D03*
X1204011Y974581D02*
D03*
X1209809Y980379D02*
D03*
X1191411Y974581D02*
D03*
X1197209Y980379D02*
D03*
X1279611Y987181D02*
D03*
X1285409Y992979D02*
D03*
X1267011Y987181D02*
D03*
X1272809Y992979D02*
D03*
X1254411Y987181D02*
D03*
X1260209Y992979D02*
D03*
X1241811Y987181D02*
D03*
X1247609Y992979D02*
D03*
X1229211Y987181D02*
D03*
X1235009Y992979D02*
D03*
X1216611Y987181D02*
D03*
X1222409Y992979D02*
D03*
X1204011Y987181D02*
D03*
X1209809Y992979D02*
D03*
X1191411Y987181D02*
D03*
X1197209Y992979D02*
D03*
X1279611Y999781D02*
D03*
X1285409Y1005579D02*
D03*
X1267011Y999781D02*
D03*
X1272809Y1005579D02*
D03*
X1254411Y999781D02*
D03*
X1260209Y1005579D02*
D03*
X1241811Y999781D02*
D03*
X1247609Y1005579D02*
D03*
X1229211Y999781D02*
D03*
X1235009Y1005579D02*
D03*
X1216611Y999781D02*
D03*
X1222409Y1005579D02*
D03*
X1204011Y999781D02*
D03*
X1209809Y1005579D02*
D03*
X1191411Y999781D02*
D03*
X1197209Y1005579D02*
D03*
X1279611Y1012381D02*
D03*
X1285409Y1018179D02*
D03*
X1267011Y1012381D02*
D03*
X1272809Y1018179D02*
D03*
X1254411Y1012381D02*
D03*
X1260209Y1018179D02*
D03*
X1241811Y1012381D02*
D03*
X1247609Y1018179D02*
D03*
X1229211Y1012381D02*
D03*
X1235009Y1018179D02*
D03*
X1216611Y1012381D02*
D03*
X1222409Y1018179D02*
D03*
X1204011Y1012381D02*
D03*
X1209809Y1018179D02*
D03*
X1191411Y1012381D02*
D03*
X1197209Y1018179D02*
D03*
X1279611Y1024981D02*
D03*
X1285409Y1030779D02*
D03*
X1267011Y1024981D02*
D03*
X1272809Y1030779D02*
D03*
X1254411Y1024981D02*
D03*
X1260209Y1030779D02*
D03*
X1241811Y1024981D02*
D03*
X1247609Y1030779D02*
D03*
X1229211Y1024981D02*
D03*
X1235009Y1030779D02*
D03*
X1216611Y1024981D02*
D03*
X1222409Y1030779D02*
D03*
X1204011Y1024981D02*
D03*
X1209809Y1030779D02*
D03*
X1191411Y1024981D02*
D03*
X1197209Y1030779D02*
D03*
X1279611Y1037581D02*
D03*
X1285409Y1043379D02*
D03*
X1267011Y1037581D02*
D03*
X1272809Y1043379D02*
D03*
X1254411Y1037581D02*
D03*
X1260209Y1043379D02*
D03*
X1241811Y1037581D02*
D03*
X1247609Y1043379D02*
D03*
X1229211Y1037581D02*
D03*
X1235009Y1043379D02*
D03*
X1216611Y1037581D02*
D03*
X1222409Y1043379D02*
D03*
X1204011Y1037581D02*
D03*
X1209809Y1043379D02*
D03*
X1191411Y1037581D02*
D03*
X1197209Y1043379D02*
D03*
X1279611Y1050181D02*
D03*
X1285409Y1055979D02*
D03*
X1267011Y1050181D02*
D03*
X1272809Y1055979D02*
D03*
X1254411Y1050181D02*
D03*
X1260209Y1055979D02*
D03*
X1241811Y1050181D02*
D03*
X1247609Y1055979D02*
D03*
X1229211Y1050181D02*
D03*
X1235009Y1055979D02*
D03*
X1216611Y1050181D02*
D03*
X1222409Y1055979D02*
D03*
X1204011Y1050181D02*
D03*
X1209809Y1055979D02*
D03*
X1191411Y1050181D02*
D03*
X1197209Y1055979D02*
D03*
X1279611Y1062781D02*
D03*
X1285409Y1068579D02*
D03*
X1267011Y1062781D02*
D03*
X1272809Y1068579D02*
D03*
X1254411Y1062781D02*
D03*
X1260209Y1068579D02*
D03*
X1241811Y1062781D02*
D03*
X1247609Y1068579D02*
D03*
X1229211Y1062781D02*
D03*
X1235009Y1068579D02*
D03*
X1216611Y1062781D02*
D03*
X1222409Y1068579D02*
D03*
X1204011Y1062781D02*
D03*
X1209809Y1068579D02*
D03*
X1191411Y1062781D02*
D03*
X1197209Y1068579D02*
D03*
X1279611Y1075381D02*
D03*
X1285409Y1081179D02*
D03*
X1267011Y1075381D02*
D03*
X1272809Y1081179D02*
D03*
X1254411Y1075381D02*
D03*
X1260209Y1081179D02*
D03*
X1241811Y1075381D02*
D03*
X1247609Y1081179D02*
D03*
X1229211Y1075381D02*
D03*
X1235009Y1081179D02*
D03*
X1216611Y1075381D02*
D03*
X1222409Y1081179D02*
D03*
X1204011Y1075381D02*
D03*
X1209809Y1081179D02*
D03*
X1191411Y1075381D02*
D03*
X1197209Y1081179D02*
D03*
X1279611Y1087981D02*
D03*
X1285409Y1093779D02*
D03*
X1267011Y1087981D02*
D03*
X1272809Y1093779D02*
D03*
X1254411Y1087981D02*
D03*
X1260209Y1093779D02*
D03*
X1241811Y1087981D02*
D03*
X1247609Y1093779D02*
D03*
X1229211Y1087981D02*
D03*
X1235009Y1093779D02*
D03*
X1216611Y1087981D02*
D03*
X1222409Y1093779D02*
D03*
X1204011Y1087981D02*
D03*
X1209809Y1093779D02*
D03*
X1191411Y1087981D02*
D03*
X1197209Y1093779D02*
D03*
X1279611Y1100581D02*
D03*
X1285409Y1106379D02*
D03*
X1267011Y1100581D02*
D03*
X1272809Y1106379D02*
D03*
X1254411Y1100581D02*
D03*
X1260209Y1106379D02*
D03*
X1241811Y1100581D02*
D03*
X1247609Y1106379D02*
D03*
X1229211Y1100581D02*
D03*
X1235009Y1106379D02*
D03*
X1216611Y1100581D02*
D03*
X1222409Y1106379D02*
D03*
X1204011Y1100581D02*
D03*
X1209809Y1106379D02*
D03*
X1191411Y1100581D02*
D03*
X1197209Y1106379D02*
D03*
X1279611Y1113181D02*
D03*
X1285409Y1118979D02*
D03*
X1267011Y1113181D02*
D03*
X1272809Y1118979D02*
D03*
X1254411Y1113181D02*
D03*
X1260209Y1118979D02*
D03*
X1241811Y1113181D02*
D03*
X1247609Y1118979D02*
D03*
X1229211Y1113181D02*
D03*
X1235009Y1118979D02*
D03*
X1216611Y1113181D02*
D03*
X1222409Y1118979D02*
D03*
X1204011Y1113181D02*
D03*
X1209809Y1118979D02*
D03*
X1191411Y1113181D02*
D03*
X1197209Y1118979D02*
D03*
X1279611Y1125781D02*
D03*
X1285409Y1131579D02*
D03*
X1267011Y1125781D02*
D03*
X1272809Y1131579D02*
D03*
X1254411Y1125781D02*
D03*
X1260209Y1131579D02*
D03*
X1241811Y1125781D02*
D03*
X1247609Y1131579D02*
D03*
X1229211Y1125781D02*
D03*
X1235009Y1131579D02*
D03*
X1216611Y1125781D02*
D03*
X1222409Y1131579D02*
D03*
X1204011Y1125781D02*
D03*
X1209809Y1131579D02*
D03*
X1191411Y1125781D02*
D03*
X1197209Y1131579D02*
D03*
D26*
X729558Y1193599D02*
X731691D01*
X730625D01*
Y1190400D01*
X734357Y1193599D02*
X733290D01*
X732757Y1193066D01*
Y1190933D01*
X733290Y1190400D01*
X734357D01*
X734890Y1190933D01*
Y1193066D01*
X734357Y1193599D01*
X735956Y1190400D02*
Y1193599D01*
X737556D01*
X738089Y1193066D01*
Y1192000D01*
X737556Y1191466D01*
X735956D01*
X742354Y1190400D02*
Y1193599D01*
X743954D01*
X744487Y1193066D01*
Y1192000D01*
X743954Y1191466D01*
X742354D01*
X745553Y1190400D02*
Y1192533D01*
X746619Y1193599D01*
X747686Y1192533D01*
Y1190400D01*
Y1192000D01*
X745553D01*
X750885Y1193066D02*
X750352Y1193599D01*
X749285D01*
X748752Y1193066D01*
Y1192533D01*
X749285Y1192000D01*
X750352D01*
X750885Y1191466D01*
Y1190933D01*
X750352Y1190400D01*
X749285D01*
X748752Y1190933D01*
X751951Y1193599D02*
X754084D01*
X753017D01*
Y1190400D01*
X757283Y1193599D02*
X755150D01*
Y1190400D01*
X757283D01*
X755150Y1192000D02*
X756216D01*
D155*
X675258Y867300D02*
D03*
X1226648Y1176160D02*
D03*
M02*
