G04*
G04 #@! TF.GenerationSoftware,Altium Limited,CircuitStudio,1.5.2 (30)*
G04*
G04 Layer_Color=32768*
%FSLAX25Y25*%
%MOIN*%
G70*
G01*
G75*
%ADD26C,0.00600*%
%ADD160C,0.04737*%
%ADD161C,0.00800*%
%ADD162C,0.07800*%
%ADD163O,0.07800X0.06800*%
%ADD164O,0.06800X0.07400*%
%ADD165O,0.07400X0.06800*%
%ADD166R,0.03950X0.04737*%
G04:AMPARAMS|DCode=167|XSize=26.9mil|YSize=74.93mil|CornerRadius=11.09mil|HoleSize=0mil|Usage=FLASHONLY|Rotation=270.000|XOffset=0mil|YOffset=0mil|HoleType=Round|Shape=RoundedRectangle|*
%AMROUNDEDRECTD167*
21,1,0.02690,0.05276,0,0,270.0*
21,1,0.00472,0.07493,0,0,270.0*
1,1,0.02217,-0.02638,-0.00236*
1,1,0.02217,-0.02638,0.00236*
1,1,0.02217,0.02638,0.00236*
1,1,0.02217,0.02638,-0.00236*
%
%ADD167ROUNDEDRECTD167*%
G04:AMPARAMS|DCode=168|XSize=26.9mil|YSize=74.93mil|CornerRadius=11.09mil|HoleSize=0mil|Usage=FLASHONLY|Rotation=0.000|XOffset=0mil|YOffset=0mil|HoleType=Round|Shape=RoundedRectangle|*
%AMROUNDEDRECTD168*
21,1,0.02690,0.05276,0,0,0.0*
21,1,0.00472,0.07493,0,0,0.0*
1,1,0.02217,0.00236,-0.02638*
1,1,0.02217,-0.00236,-0.02638*
1,1,0.02217,-0.00236,0.02638*
1,1,0.02217,0.00236,0.02638*
%
%ADD168ROUNDEDRECTD168*%
G04:AMPARAMS|DCode=169|XSize=73.35mil|YSize=22.57mil|CornerRadius=9.46mil|HoleSize=0mil|Usage=FLASHONLY|Rotation=180.000|XOffset=0mil|YOffset=0mil|HoleType=Round|Shape=RoundedRectangle|*
%AMROUNDEDRECTD169*
21,1,0.07335,0.00364,0,0,180.0*
21,1,0.05443,0.02257,0,0,180.0*
1,1,0.01893,-0.02722,0.00182*
1,1,0.01893,0.02722,0.00182*
1,1,0.01893,0.02722,-0.00182*
1,1,0.01893,-0.02722,-0.00182*
%
%ADD169ROUNDEDRECTD169*%
G04:AMPARAMS|DCode=170|XSize=70.99mil|YSize=44mil|CornerRadius=17.5mil|HoleSize=0mil|Usage=FLASHONLY|Rotation=90.000|XOffset=0mil|YOffset=0mil|HoleType=Round|Shape=RoundedRectangle|*
%AMROUNDEDRECTD170*
21,1,0.07099,0.00900,0,0,90.0*
21,1,0.03599,0.04400,0,0,90.0*
1,1,0.03500,0.00450,0.01800*
1,1,0.03500,0.00450,-0.01800*
1,1,0.03500,-0.00450,-0.01800*
1,1,0.03500,-0.00450,0.01800*
%
%ADD170ROUNDEDRECTD170*%
%ADD171R,0.04737X0.03950*%
G04:AMPARAMS|DCode=172|XSize=80mil|YSize=54mil|CornerRadius=17.8mil|HoleSize=0mil|Usage=FLASHONLY|Rotation=0.000|XOffset=0mil|YOffset=0mil|HoleType=Round|Shape=RoundedRectangle|*
%AMROUNDEDRECTD172*
21,1,0.08000,0.01840,0,0,0.0*
21,1,0.04440,0.05400,0,0,0.0*
1,1,0.03560,0.02220,-0.00920*
1,1,0.03560,-0.02220,-0.00920*
1,1,0.03560,-0.02220,0.00920*
1,1,0.03560,0.02220,0.00920*
%
%ADD172ROUNDEDRECTD172*%
D26*
X1094158Y1193599D02*
Y1190400D01*
X1092559D01*
X1092026Y1190933D01*
Y1191466D01*
X1092559Y1192000D01*
X1094158D01*
X1092559D01*
X1092026Y1192533D01*
Y1193066D01*
X1092559Y1193599D01*
X1094158D01*
X1089360D02*
X1090426D01*
X1090959Y1193066D01*
Y1190933D01*
X1090426Y1190400D01*
X1089360D01*
X1088827Y1190933D01*
Y1193066D01*
X1089360Y1193599D01*
X1087760D02*
X1085628D01*
X1086694D01*
Y1190400D01*
X1084561Y1193599D02*
X1082429D01*
X1083495D01*
Y1190400D01*
X1079763Y1193599D02*
X1080829D01*
X1081362Y1193066D01*
Y1190933D01*
X1080829Y1190400D01*
X1079763D01*
X1079230Y1190933D01*
Y1193066D01*
X1079763Y1193599D01*
X1078163Y1190400D02*
Y1193599D01*
X1077097Y1192533D01*
X1076031Y1193599D01*
Y1190400D01*
X1069633Y1193066D02*
X1070166Y1193599D01*
X1071232D01*
X1071766Y1193066D01*
Y1192533D01*
X1071232Y1192000D01*
X1070166D01*
X1069633Y1191466D01*
Y1190933D01*
X1070166Y1190400D01*
X1071232D01*
X1071766Y1190933D01*
X1066967Y1193599D02*
X1068033D01*
X1068567Y1193066D01*
Y1190933D01*
X1068033Y1190400D01*
X1066967D01*
X1066434Y1190933D01*
Y1193066D01*
X1066967Y1193599D01*
X1065368D02*
Y1190400D01*
X1063235D01*
X1062169Y1193599D02*
Y1190400D01*
X1060569D01*
X1060036Y1190933D01*
Y1193066D01*
X1060569Y1193599D01*
X1062169D01*
X1056837D02*
X1058970D01*
Y1190400D01*
X1056837D01*
X1058970Y1192000D02*
X1057903D01*
X1055771Y1190400D02*
Y1193599D01*
X1054171D01*
X1053638Y1193066D01*
Y1192000D01*
X1054171Y1191466D01*
X1055771D01*
X1054704D02*
X1053638Y1190400D01*
D160*
X646858Y931600D02*
D03*
X1292958Y1136300D02*
D03*
D161*
X709458Y1178800D02*
D03*
D162*
X1181500Y1156100D02*
D03*
X1171500D02*
D03*
X1201500D02*
D03*
X1191500D02*
D03*
X1221500D02*
D03*
X1211500D02*
D03*
X1241500D02*
D03*
X1231500D02*
D03*
X1261500D02*
D03*
X1251500D02*
D03*
X1281500D02*
D03*
X1271500D02*
D03*
X1134500Y1169500D02*
D03*
Y1159500D02*
D03*
D163*
X1124500Y1169500D02*
D03*
Y1159500D02*
D03*
D164*
X655958Y1110000D02*
D03*
D165*
X1084300Y1109950D02*
D03*
X1292000Y1110040D02*
D03*
X862658Y1109690D02*
D03*
D166*
X935000Y1004300D02*
D03*
X929100D02*
D03*
X1009500Y1072200D02*
D03*
X1015400D02*
D03*
X935000Y1071400D02*
D03*
X929100D02*
D03*
X1009500Y1064600D02*
D03*
X1015400D02*
D03*
X1009500Y1056800D02*
D03*
X1015400D02*
D03*
X1009500Y1049000D02*
D03*
X1015400D02*
D03*
X1009500Y1040500D02*
D03*
X1015400D02*
D03*
X1009500Y1007500D02*
D03*
X1015400D02*
D03*
X1009500Y1015500D02*
D03*
X1015400D02*
D03*
X1009500Y1024100D02*
D03*
X1015400D02*
D03*
X1009500Y1032500D02*
D03*
X1015400D02*
D03*
X935000Y1040300D02*
D03*
X929100D02*
D03*
X935000Y1048600D02*
D03*
X929100D02*
D03*
X935000Y1056200D02*
D03*
X929100D02*
D03*
X935000Y1063800D02*
D03*
X929100D02*
D03*
X935000Y1030100D02*
D03*
X929100D02*
D03*
X935000Y1020100D02*
D03*
X929100D02*
D03*
X935000Y1012200D02*
D03*
X929100D02*
D03*
D167*
X950559Y1058748D02*
D03*
X950559Y1055598D02*
D03*
Y1052449D02*
D03*
Y1049299D02*
D03*
Y1046150D02*
D03*
X950559Y1043000D02*
D03*
Y1039850D02*
D03*
X950559Y1036701D02*
D03*
Y1033551D02*
D03*
Y1030402D02*
D03*
X950559Y1027252D02*
D03*
X995441Y1058748D02*
D03*
Y1055598D02*
D03*
Y1052449D02*
D03*
Y1049299D02*
D03*
Y1046150D02*
D03*
Y1043000D02*
D03*
Y1039850D02*
D03*
Y1036701D02*
D03*
Y1033551D02*
D03*
Y1030402D02*
D03*
Y1027252D02*
D03*
D168*
X957252Y1020559D02*
D03*
X960402D02*
D03*
X963551D02*
D03*
X966701D02*
D03*
X969850D02*
D03*
X973000D02*
D03*
X976150D02*
D03*
X979299D02*
D03*
X982449Y1020559D02*
D03*
X985598Y1020559D02*
D03*
X988748D02*
D03*
X957252Y1065441D02*
D03*
X960402D02*
D03*
X963551D02*
D03*
X966701D02*
D03*
X969850D02*
D03*
X973000D02*
D03*
X976150D02*
D03*
X979299D02*
D03*
X982449D02*
D03*
X985598D02*
D03*
X988748D02*
D03*
D169*
X991256Y951393D02*
D03*
Y953952D02*
D03*
Y959070D02*
D03*
Y956511D02*
D03*
Y964188D02*
D03*
Y961629D02*
D03*
Y969307D02*
D03*
Y966748D02*
D03*
X1013500D02*
D03*
Y969307D02*
D03*
Y961629D02*
D03*
Y964188D02*
D03*
Y956511D02*
D03*
Y959070D02*
D03*
Y953952D02*
D03*
Y951393D02*
D03*
X933056D02*
D03*
Y953952D02*
D03*
Y959070D02*
D03*
Y956511D02*
D03*
Y964188D02*
D03*
Y961629D02*
D03*
Y969307D02*
D03*
Y966748D02*
D03*
X955300D02*
D03*
Y969307D02*
D03*
Y961629D02*
D03*
Y964188D02*
D03*
Y956511D02*
D03*
Y959070D02*
D03*
Y953952D02*
D03*
Y951393D02*
D03*
D170*
X1014191Y906156D02*
D03*
X1014191Y894794D02*
D03*
X929191Y913794D02*
D03*
X929191Y925156D02*
D03*
X939191D02*
D03*
X939191Y913794D02*
D03*
X949191D02*
D03*
X949191Y925156D02*
D03*
X959191D02*
D03*
X959191Y913794D02*
D03*
X969191D02*
D03*
X969191Y925156D02*
D03*
X979191D02*
D03*
X979191Y913794D02*
D03*
X989191D02*
D03*
X989191Y925156D02*
D03*
X999191D02*
D03*
X999191Y913794D02*
D03*
X1009191D02*
D03*
X1009191Y925156D02*
D03*
X934191Y906156D02*
D03*
X934191Y894794D02*
D03*
X944191D02*
D03*
X944191Y906156D02*
D03*
X954191D02*
D03*
X954191Y894794D02*
D03*
X964191D02*
D03*
X964191Y906156D02*
D03*
X974191D02*
D03*
X974191Y894794D02*
D03*
X984191D02*
D03*
X984191Y906156D02*
D03*
X994191D02*
D03*
X994191Y894794D02*
D03*
X1004191D02*
D03*
X1004191Y906156D02*
D03*
D171*
X970558Y961600D02*
D03*
Y967500D02*
D03*
X943300Y1081600D02*
D03*
Y1087500D02*
D03*
X951500Y1081600D02*
D03*
Y1087500D02*
D03*
X959200Y1081600D02*
D03*
Y1087500D02*
D03*
X999900Y1081600D02*
D03*
Y1087500D02*
D03*
X992100Y1081600D02*
D03*
Y1087500D02*
D03*
X983100Y1081600D02*
D03*
Y1087500D02*
D03*
X975400Y1081600D02*
D03*
Y1087500D02*
D03*
X967700Y1081600D02*
D03*
Y1087500D02*
D03*
X1007800Y1081600D02*
D03*
Y1087500D02*
D03*
X935700Y1081600D02*
D03*
Y1087500D02*
D03*
X937900Y1133000D02*
D03*
Y1138900D02*
D03*
X1010000Y1133000D02*
D03*
Y1138900D02*
D03*
X970100Y1133000D02*
D03*
Y1138900D02*
D03*
X977900Y1133000D02*
D03*
Y1138900D02*
D03*
X986600Y1133000D02*
D03*
Y1138900D02*
D03*
X994400Y1133000D02*
D03*
Y1138900D02*
D03*
X1002200Y1133000D02*
D03*
Y1138900D02*
D03*
X962300Y1133000D02*
D03*
Y1138900D02*
D03*
X953900Y1133000D02*
D03*
Y1138900D02*
D03*
X945500Y1133000D02*
D03*
Y1138900D02*
D03*
X1000900Y1007000D02*
D03*
Y1001100D02*
D03*
X993100Y1007000D02*
D03*
Y1001100D02*
D03*
X985300Y1007000D02*
D03*
Y1001100D02*
D03*
X977500Y1007000D02*
D03*
Y1001100D02*
D03*
X944400Y1007000D02*
D03*
Y1001100D02*
D03*
X952500Y1007000D02*
D03*
Y1001100D02*
D03*
X960600Y1007000D02*
D03*
Y1001100D02*
D03*
X968700Y1007000D02*
D03*
Y1001100D02*
D03*
D172*
X957405Y1102018D02*
D03*
X988901Y1102018D02*
D03*
X988901Y1119735D02*
D03*
X957405Y1119735D02*
D03*
M02*
