M48
;Layer_Color=3158064
;FILE_FORMAT=2:5
INCH,LZ
;TYPE=PLATED
T1F00S00C0.00800
T2F00S00C0.03500
T3F00S00C0.04000
T4F00S00C0.12598
%
T01
X1270058Y0925
X1274658
X1273058Y09363
X1284458Y09371
X12604Y09364
X12479
X12352
X12227
X121
X1195758Y09122
X1164958
X1159558Y09199
X1131758Y09122
X1120858Y09121
X1093758Y09122
X1097358Y08613
X1114958Y08743
X1151458Y08558
X1165358Y08555
X1170758Y08557
X1177358
X1177758Y08767
X1173758
X1170758
X1214758Y08567
X1228558Y08568
X1234358
X1238958
X1249758Y09121
X1064358Y09095
X1057358Y09112
Y09172
X1056958Y08947
X1060858Y0894
X1065258Y08922
X1069258
X1071158Y08726
X1061758Y08703
X1057658Y08678
X1053458
X1049458Y08667
X1043158Y08617
X1015458Y08744
X1011358Y08717
X0977158Y08675
X0977258Y08626
X0966158Y08732
X0952658
X1083758Y08614
X0914058Y08505
Y0847
X0909658Y08524
X0903058Y08586
X0889158Y08587
X0871458Y08586
X0833358
X0819758Y08585
X0802058Y08587
X0831258Y09309
X0854458Y09302
X0898058Y09329
X0898958Y09219
X0894758Y09186
X0895058Y09096
X0899058Y09076
X0914858Y09064
X0913958Y08813
Y08776
X0909658
X0770158Y08585
X0756258
X0702958
X0683958Y08607
X0666358Y08577
X0674658Y09764
X0686458Y09765
X0689958Y09666
X0693979Y0995
X0676291
Y10138
X0693979
X0738258Y10089
X0738358Y09916
Y09769
X0741058Y09629
X0722502Y0963321
X0733558Y10669
X0738158Y10816
X0785658Y10869
X0795358Y10816
X0794558Y10665
X0853158Y10664
X0856058Y10818
X0844858Y10873
X0844758Y10476
X0855758Y10088
X0864158Y1012
X0853858Y09938
X0867258Y09765
X0860558Y09627
X0875758Y09625
X0877458Y0944
X0891358Y09393
X0899658Y09442
X0900958Y09508
X0889358Y09516
X0917758Y09501
X0924958Y09502
X0923258Y09445
X0935358Y09442
X0925058Y09763
X0913058Y09775
X0906658Y09774
X0913158Y09897
X0907058Y10147
X0916358Y10264
X0923258Y10342
X0934258Y10352
X0905658Y10513
X0906758Y10734
X0902458Y10735
X0902408Y108155
X0902458Y10863
X0906758Y10873
X0925758Y1081
X0796958Y10088
X0797258Y09916
X0797158Y09769
X0792132Y0962621
X080802
X0823907
X0945458Y09756
X0949258
X0949758Y09396
X0945658Y09397
X0964358Y09399
X0967658
X0974158Y0948
X0974058Y09517
X0962058Y09493
X0978858Y09683
X1001658Y09687
X1002258Y09742
X1001458Y09576
X1005558
X1048358Y09575
Y09531
X1048458Y09489
X1048358Y09398
Y0962
Y0971
Y09823
Y09859
Y09897
X1049058Y10219
X1082158Y10278
Y10153
X1082258Y10028
X1083758Y1085
X1005658Y10931
X0998158Y10759
X0999358Y10634
X1002158Y1045
Y10413
X1003658Y10328
X1003958Y10216
X0987758Y10374
X0988058Y10467
X0984158Y10466
X0979858
X0975658
X0971758
X0971558Y10537
X0973358Y10568
X0962658Y10508
Y10466
X0959358Y10421
Y10325
Y10285
X0966558Y10333
Y10383
X0972658Y10332
X0958558Y10509
X0940458Y10474
X0938158Y10352
X0975558Y09958
X0989358Y0996
X1147658Y09955
X1148058Y09828
X1147058Y0965
X1147258Y09521
X1151758Y09446
X1168258Y09585
X11974Y09616
X121
Y09742
X11974
X1197349Y0986821
X1209949
Y0999421
X1197349
X11974Y1012
X121
Y10246
Y10372
X11974
Y10498
Y10624
X121
Y1075
X11974
X1197549Y10876
X1210149
X1222849
X1235349
X1248049
X12479Y1075
Y10624
Y10498
Y10372
Y10246
Y1012
X1247849Y0999421
Y0986821
X12479Y09742
Y09616
Y0949
X12352
X12227
Y09616
X12352
Y09742
X12227
X1222649Y0986821
X1235149
Y0999421
X1222649
X12227Y1012
X12352
Y10246
X12227
Y10372
X12352
Y10498
X12227
Y10624
X12352
Y1075
X12227
X121Y10498
X11974Y10246
X1147758Y10277
X1144058Y10252
X1149558Y10192
X1154258Y10087
X1147858Y10405
Y10532
Y10657
X1145858Y10786
X1144658Y10911
X1157058Y10846
X1189658Y09433
X11974Y0949
X121
X12604
Y09616
Y09742
X1260349Y0986821
Y0999421
X12604Y1012
Y10246
Y10372
Y10498
Y10624
Y1075
X12731
X12856
X1289458Y10751
X1285749Y10876
X1273249
X1260549
X12731Y10624
X12856
Y10498
X1289458
X12731
Y10372
X12856
Y10246
X1289658
X12731
Y1012
X12856
X1285549Y0999421
X1289458Y09995
X1273049Y0999421
Y0986821
X1285049
X12856Y09742
X12731
Y09616
X1285
X12856Y0949
X12731
X1273249Y11002
X1285749
X1289458
X12856Y11128
X12731
Y11254
X12856
X1279558Y11341
X12604Y11254
Y11128
X1260549Y11002
X1248049
X1235349
X1222849
X1210149
X1197549
X11974Y11128
Y11254
X121
Y11128
X12227
X12352
Y11254
X12227
X12479
Y11128
X1147758Y11162
Y11265
Y11034
X1119158Y11291
X1015358Y1135
X1005558Y11275
X0999958Y11274
X1001958Y11225
X0990558Y11279
X0965058Y11274
X0971558Y11144
X0971058Y11096
X0974458
X0998958Y11047
X1005558Y10969
X0941758Y10992
X0938658Y11051
X0941058Y11079
X0946758Y1124
X0935458Y11274
X0906358Y1117
X0913458Y10946
X0847158Y11173
Y11312
X0788358Y11308
X0788558Y11192
X0738458Y11113
X0734058Y11277
X0732458Y1096
T02
X1292Y111004
X10843Y110995
X0862658Y110969
X0655958Y111
T03
X12515Y11561
X12615
X12715
X12815
X12415
X12315
X12215
X12115
X12015
X11915
X11815
X11715
X11345Y11595
Y11695
X11245
Y11595
T04
X0709458Y11788
M30
