M48
;Layer_Color=3158064
;FILE_FORMAT=2:5
INCH,LZ
;TYPE=PLATED
T1F00S00C0.03000
T2F00S00C0.04000
T3F00S00C0.12598
%
T01
X109669Y054402
Y055402
X110669
X111669
X112669
X113669
Y054402
X112669
X111669
X110669
Y056402
Y057402
Y058402
X111669
X112669
X113669
Y057402
X112669
X111669
Y056402
X112669
X113669
X114669
X115669
Y057402
Y058402
Y059402
Y060402
Y061402
Y062402
X114669
Y061402
Y060402
Y059402
X113669
X112669
X111669
X110669
X109669
Y058402
Y057402
Y056402
Y060402
X110669
X111669
X112669
X113669
Y061402
Y062402
X112669
X111669
X110669
X109669
Y061402
X110669
X111669
X112669
X114669Y058402
Y057402
Y055402
X115669
Y054402
X114669
X108669
Y055402
X107669
X106669
X105669
X104669
X103669
X102669
Y056402
X101669
Y057402
Y058402
X102669
X103669
X104669
X105669
X106669
X107669
Y057402
X106669
X105669
X104669
X103669
X102669
Y059402
X101669
X100669
X099669
Y058402
X098669
X097669
X096669
X095669
X094669
Y057402
Y056402
X095669
X096669
X097669
X098669
X099669
Y057402
X098669
X097669
X096669
X095669
Y055402
X096669
X097669
X098669
X099669
X100669
X101669
Y054402
X100669
X099669
X098669
X097669
X096669
X095669
X094669
Y055402
Y059402
X095669
X096669
X097669
X098669
Y060402
X097669
X096669
X095669
X094669
Y061402
Y062402
X095669
X096669
X097669
X098669
X099669
X100669
Y061402
Y060402
X099669
Y061402
X098669
X097669
X096669
X095669
X101669
Y060402
X102669
X103669
Y059402
X104669
X105669
X106669
X107669
X108669
Y058402
Y057402
Y056402
X107669
X106669
X105669
X104669
X103669
Y054402
X104669
X105669
X106669
X107669
X102669
X100669Y056402
Y057402
Y058402
X101669Y062402
X102669
X103669
X104669
X105669
Y061402
Y060402
X106669
X107669
X108669
Y061402
Y062402
X107669
X106669
Y061402
X107669
X104669
Y060402
X103669Y061402
X102669
X093669
X092669
X091669
X090669
X089669
X088669
X087669
X086669
Y062402
X087669
X088669
X089669
X090669
X091669
X092669
X093669
Y060402
Y059402
X092669
X091669
X090669
X089669
X088669
X087669
X086669
X085669
X084669
X083669
X082669
X081669
X080669
X079669
Y058402
Y057402
X080669
X081669
X082669
X083669
X084669
X085669
Y056402
Y055402
X086669
X087669
X088669
X089669
X090669
X091669
X092669
X093669
Y056402
Y057402
X092669
X091669
X090669
X089669
X088669
Y056402
X089669
X090669
X091669
X092669
Y058402
X093669
X091669
X090669
X089669
X088669
X087669
Y057402
Y056402
X086669
Y057402
Y058402
X085669
X084669
X083669
X082669
X081669
X080669
Y056402
Y055402
X079669
X078669
Y056402
X079669
X081669
Y055402
X082669
X083669
X084669
Y056402
X083669
X082669
Y054402
X081669
X080669
X079669
X078669
Y057402
Y058402
Y059402
Y060402
Y061402
Y062402
X079669
Y061402
X080669
X081669
X082669
X083669
X084669
X085669
Y062402
X084669
X083669
X082669
X081669
X080669
Y060402
X081669
X082669
X083669
X084669
X085669
X086669
X087669
X088669
X089669
X090669
X091669
X092669
Y054402
X093669
X091669
X090669
X089669
X088669
X087669
X086669
X085669
X084669
X083669
X079669Y060402
X077669
Y059402
X076669
X075669
X074669
X073669
X072669
X071669
X070669
X069669
X068669
X067669
X066669
X065669
Y058402
Y057402
X066669
X067669
X068669
X069669
X070669
X071669
X072669
X073669
X074669
X075669
X076669
Y056402
Y055402
X075669
X074669
X073669
X072669
X071669
X070669
X069669
X068669
X067669
X066669
X065669
X064669
X063669
X062669
Y056402
X063669
X064669
X065669
X066669
X067669
X068669
X069669
X070669
X071669
X072669
X073669
X074669
X075669
X077669
Y055402
Y054402
X076669
X075669
X074669
X073669
X072669
X071669
X070669
X069669
X068669
X067669
X066669
X065669
X064669
X063669
X062669
Y057402
Y058402
X063669
X064669
Y057402
X063669
Y059402
X064669
Y060402
X063669
X062669
Y059402
Y061402
Y062402
X063669
X064669
Y061402
X063669
X065669
X066669
X067669
X068669
X069669
X070669
X071669
X072669
X073669
X074669
X075669
Y062402
X074669
X073669
X072669
X071669
X070669
X069669
X068669
X067669
X066669
X065669
Y060402
X066669
X067669
X068669
X069669
X070669
X071669
X072669
X073669
X074669
X075669
X076669
Y061402
X077669
Y062402
X076669
Y058402
X075669
X074669
X073669
X072669
X071669
X070669
X069669
X068669
X067669
X066669
X077669
Y057402
X061669
Y056402
Y055402
X060669
X059669
Y056402
X060669
Y057402
Y058402
X059669
X058669
Y059402
X059669
X060669
X061669
Y058402
Y060402
X060669
X059669
X058669
Y061402
Y062402
X059669
X060669
X061669
Y061402
X060669
X059669
Y057402
X058669
Y056402
Y055402
Y054402
X059669
X060669
X061669
Y063402
X060669
X059669
X058669
Y064402
X059669
X060669
X061669
Y065402
X060669
X059669
X058669
X062669
Y064402
Y063402
X063669
X064669
X065669
X066669
X067669
X068669
X069669
X070669
X071669
X072669
X073669
X074669
X075669
X076669
X077669
Y064402
X076669
X075669
X074669
X073669
X072669
X071669
X070669
X069669
X068669
X067669
X066669
X065669
X064669
X063669
Y065402
X064669
X065669
X066669
X067669
X068669
X069669
X070669
X071669
X072669
X073669
X074669
X075669
X076669
X077669
X078669
Y064402
Y063402
X079669
X080669
X081669
X082669
X083669
X084669
X085669
X086669
X087669
X088669
X089669
X090669
X091669
X092669
X093669
Y064402
X092669
X091669
X090669
X089669
X088669
X087669
X086669
X085669
X084669
X083669
X082669
X081669
X080669
X079669
Y065402
X080669
X081669
X082669
X083669
X084669
X085669
X086669
X087669
X088669
X089669
X090669
X091669
X092669
X093669
X094669
Y064402
X095669
X096669
X097669
X098669
X099669
X100669
Y063402
X099669
X098669
X097669
X096669
X095669
X094669
X095669Y065402
X096669
X097669
X098669
X099669
X100669
X101669
Y064402
X102669
X103669
X104669
X105669
X106669
X107669
X108669
Y063402
X107669
X106669
X105669
X104669
X103669
X102669
X101669
X102669Y065402
X103669
X104669
X105669
X106669
X107669
X108669
X109669
Y064402
X110669
X111669
X112669
X113669
X114669
X115669
Y063402
X114669
X113669
X112669
X111669
X110669
X109669
X110669Y065402
X111669
X112669
X113669
X114669
X115669
T02
X1096722Y052892
X1106722
X1116722
X1126722
X1136722
X1146722
X116669Y054402
Y055402
Y056402
Y057402
Y058402
Y059402
Y060402
Y061402
Y062402
X1086722Y052892
X1076722
X1066722
X1056722
X1046722
X1036722
X057669Y054402
Y055402
Y056402
Y057402
Y058402
Y059402
Y060402
Y061402
Y062402
Y063402
Y064402
Y065402
X116669
Y064402
Y063402
T03
X057476Y050352
M30
